<svg width="60" height="60" viewBox="0 0 60 60" fill="none" xmlns="http://www.w3.org/2000/svg">
<g clip-path="url(#clip0_159_3421)">
<circle cx="30" cy="30" r="30" fill="#FFBC57"/>
<path d="M36.939 23.3295L28.437 31.8611L25.1117 28.5132C24.7732 28.1743 24.3141 27.9839 23.8355 27.9839C23.3568 27.9839 22.8977 28.1743 22.5593 28.5132C22.2208 28.8522 22.0306 29.3118 22.0306 29.7912C22.0306 30.0285 22.0773 30.2635 22.168 30.4828C22.2587 30.7021 22.3917 30.9013 22.5593 31.0691L27.1608 35.6769C27.3279 35.8456 27.5267 35.9795 27.7457 36.0709C27.9648 36.1623 28.1997 36.2093 28.437 36.2093C28.6743 36.2093 28.9092 36.1623 29.1282 36.0709C29.3473 35.9795 29.5461 35.8456 29.7132 35.6769L39.4914 25.8853C39.659 25.7175 39.7919 25.5183 39.8826 25.299C39.9733 25.0797 40.02 24.8447 40.02 24.6074C40.02 24.3701 39.9733 24.135 39.8826 23.9158C39.7919 23.6965 39.659 23.4973 39.4914 23.3295C39.3238 23.1616 39.1248 23.0285 38.9059 22.9377C38.6869 22.8469 38.4522 22.8001 38.2152 22.8001C37.9782 22.8001 37.7435 22.8469 37.5245 22.9377C37.3056 23.0285 37.1066 23.1616 36.939 23.3295ZM31.0253 11C28.6649 11 26.3275 11.4656 24.1467 12.3701C21.9659 13.2747 19.9844 14.6005 18.3153 16.2718C14.9444 19.6474 13.0507 24.2255 13.0507 28.9992C13.035 33.1555 14.4721 37.1862 17.1129 40.3927L13.518 43.9925C13.2686 44.2457 13.0996 44.5671 13.0325 44.9162C12.9653 45.2654 13.0029 45.6267 13.1405 45.9545C13.2898 46.2783 13.5319 46.5504 13.8359 46.7363C14.1399 46.9222 14.4922 47.0134 14.8481 46.9984H31.0253C35.7925 46.9984 40.3644 45.1021 43.7353 41.7266C47.1062 38.3511 49 33.7729 49 28.9992C49 24.2255 47.1062 19.6474 43.7353 16.2718C40.3644 12.8963 35.7925 11 31.0253 11ZM31.0253 43.3986H19.18L20.8517 41.7246C21.1865 41.3874 21.3744 40.9312 21.3744 40.4557C21.3744 39.9802 21.1865 39.524 20.8517 39.1868C18.498 36.8325 17.0324 33.734 16.7044 30.419C16.3764 27.104 17.2063 23.7776 19.0528 21.0067C20.8993 18.2357 23.6482 16.1916 26.831 15.2226C30.0138 14.2535 33.4337 14.4195 36.508 15.6922C39.5823 16.965 42.1208 19.2657 43.6911 22.2025C45.2613 25.1393 45.7661 28.5304 45.1195 31.7981C44.4729 35.0658 42.7148 38.0079 40.1448 40.1231C37.5749 42.2384 34.352 43.3959 31.0253 43.3986Z" fill="white"/>
</g>
<defs>
<clipPath id="clip0_159_3421">
<rect width="60" height="60" fill="white"/>
</clipPath>
</defs>
</svg>
