<svg width="60" height="60" viewBox="0 0 60 60" fill="none" xmlns="http://www.w3.org/2000/svg">
<g clip-path="url(#clip0_157_4795)">
<circle cx="30" cy="30" r="30" fill="#FFBC57"/>
<path d="M40.5 22H39V20.5C39 19.3065 38.5259 18.1619 37.682 17.318C36.8381 16.4741 35.6935 16 34.5 16H19.5C18.3065 16 17.1619 16.4741 16.318 17.318C15.4741 18.1619 15 19.3065 15 20.5V38.5C15 39.6935 15.4741 40.8381 16.318 41.682C17.1619 42.5259 18.3065 43 19.5 43H40.5C41.6935 43 42.8381 42.5259 43.682 41.682C44.5259 40.8381 45 39.6935 45 38.5V26.5C45 25.3065 44.5259 24.1619 43.682 23.318C42.8381 22.4741 41.6935 22 40.5 22ZM19.5 19H34.5C34.8978 19 35.2794 19.158 35.5607 19.4393C35.842 19.7206 36 20.1022 36 20.5V22H19.5C19.1022 22 18.7206 21.842 18.4393 21.5607C18.158 21.2794 18 20.8978 18 20.5C18 20.1022 18.158 19.7206 18.4393 19.4393C18.7206 19.158 19.1022 19 19.5 19ZM42 34H40.5C40.1022 34 39.7206 33.842 39.4393 33.5607C39.158 33.2794 39 32.8978 39 32.5C39 32.1022 39.158 31.7206 39.4393 31.4393C39.7206 31.158 40.1022 31 40.5 31H42V34ZM42 28H40.5C39.3065 28 38.1619 28.4741 37.318 29.318C36.4741 30.1619 36 31.3065 36 32.5C36 33.6935 36.4741 34.8381 37.318 35.682C38.1619 36.5259 39.3065 37 40.5 37H42V38.5C42 38.8978 41.842 39.2794 41.5607 39.5607C41.2794 39.842 40.8978 40 40.5 40H19.5C19.1022 40 18.7206 39.842 18.4393 39.5607C18.158 39.2794 18 38.8978 18 38.5V24.745C18.4819 24.9145 18.9892 25.0008 19.5 25H40.5C40.8978 25 41.2794 25.158 41.5607 25.4393C41.842 25.7206 42 26.1022 42 26.5V28Z" fill="white"/>
</g>
<defs>
<clipPath id="clip0_157_4795">
<rect width="60" height="60" fill="white"/>
</clipPath>
</defs>
</svg>
