<svg width="60" height="60" viewBox="0 0 60 60" fill="none" xmlns="http://www.w3.org/2000/svg">
<g clip-path="url(#clip0_157_4897)">
<circle cx="30" cy="30" r="30" fill="#FFBC57"/>
<path d="M13 30.6364V37.4545C13 37.8162 13.1437 38.1631 13.3994 38.4188C13.6551 38.6745 14.002 38.8182 14.3636 38.8182H15.7273C15.7273 39.9032 16.1583 40.9437 16.9255 41.7109C17.6927 42.4781 18.7332 42.9091 19.8182 42.9091C20.9032 42.9091 21.9437 42.4781 22.7109 41.7109C23.4781 40.9437 23.9091 39.9032 23.9091 38.8182H32.0909C32.0909 39.9032 32.5219 40.9437 33.2891 41.7109C34.0563 42.4781 35.0968 42.9091 36.1818 42.9091C37.2668 42.9091 38.3073 42.4781 39.0745 41.7109C39.8417 40.9437 40.2727 39.9032 40.2727 38.8182H41.6364C41.998 38.8182 42.3449 38.6745 42.6006 38.4188C42.8563 38.1631 43 37.8162 43 37.4545V21.0909C43 20.0059 42.569 18.9654 41.8018 18.1982C41.0346 17.431 39.9941 17 38.9091 17H26.6364C25.5514 17 24.5108 17.431 23.7437 18.1982C22.9765 18.9654 22.5455 20.0059 22.5455 21.0909V23.8182H19.8182C19.1831 23.8182 18.5567 23.966 17.9887 24.2501C17.4206 24.5341 16.9265 24.9465 16.5455 25.4545L13.2727 29.8182C13.2328 29.8775 13.2008 29.9416 13.1773 30.0091L13.0955 30.1591C13.0353 30.3112 13.0029 30.4728 13 30.6364ZM34.8182 38.8182C34.8182 38.5485 34.8982 38.2848 35.048 38.0606C35.1978 37.8363 35.4108 37.6616 35.66 37.5583C35.9092 37.4551 36.1833 37.4281 36.4479 37.4807C36.7124 37.5334 36.9553 37.6632 37.1461 37.8539C37.3368 38.0447 37.4666 38.2876 37.5193 38.5521C37.5719 38.8167 37.5449 39.0909 37.4417 39.34C37.3384 39.5892 37.1637 39.8022 36.9394 39.952C36.7152 40.1018 36.4515 40.1818 36.1818 40.1818C35.8202 40.1818 35.4733 40.0382 35.2176 39.7824C34.9618 39.5267 34.8182 39.1798 34.8182 38.8182ZM25.2727 21.0909C25.2727 20.7293 25.4164 20.3824 25.6721 20.1267C25.9279 19.8709 26.2747 19.7273 26.6364 19.7273H38.9091C39.2708 19.7273 39.6176 19.8709 39.8733 20.1267C40.1291 20.3824 40.2727 20.7293 40.2727 21.0909V36.0909H39.2091C38.8257 35.6691 38.3583 35.332 37.837 35.1014C37.3157 34.8707 36.7519 34.7516 36.1818 34.7516C35.6118 34.7516 35.048 34.8707 34.5267 35.1014C34.0053 35.332 33.538 35.6691 33.1545 36.0909H25.2727V21.0909ZM22.5455 29.2727H17.0909L18.7273 27.0909C18.8543 26.9216 19.019 26.7841 19.2083 26.6894C19.3977 26.5947 19.6065 26.5455 19.8182 26.5455H22.5455V29.2727ZM18.4545 38.8182C18.4545 38.5485 18.5345 38.2848 18.6844 38.0606C18.8342 37.8363 19.0472 37.6616 19.2963 37.5583C19.5455 37.4551 19.8197 37.4281 20.0842 37.4807C20.3487 37.5334 20.5917 37.6632 20.7824 37.8539C20.9731 38.0447 21.103 38.2876 21.1556 38.5521C21.2082 38.8167 21.1812 39.0909 21.078 39.34C20.9748 39.5892 20.8 39.8022 20.5758 39.952C20.3515 40.1018 20.0879 40.1818 19.8182 40.1818C19.4565 40.1818 19.1097 40.0382 18.8539 39.7824C18.5982 39.5267 18.4545 39.1798 18.4545 38.8182ZM15.7273 32H22.5455V35.7909C21.7407 35.0717 20.6843 34.6996 19.6064 34.7558C18.5285 34.812 17.5165 35.2919 16.7909 36.0909H15.7273V32Z" fill="white"/>
</g>
<defs>
<clipPath id="clip0_157_4897">
<rect width="60" height="60" fill="white"/>
</clipPath>
</defs>
</svg>
