<svg width="60" height="60" viewBox="0 0 60 60" fill="none" xmlns="http://www.w3.org/2000/svg">
<g clip-path="url(#clip0_157_4933)">
<circle cx="30" cy="30" r="30" fill="#FFBC57"/>
<path d="M30 28.5C29.6022 28.5 29.2206 28.658 28.9393 28.9393C28.658 29.2206 28.5 29.6022 28.5 30V36C28.5 36.3978 28.658 36.7794 28.9393 37.0607C29.2206 37.342 29.6022 37.5 30 37.5C30.3978 37.5 30.7794 37.342 31.0607 37.0607C31.342 36.7794 31.5 36.3978 31.5 36V30C31.5 29.6022 31.342 29.2206 31.0607 28.9393C30.7794 28.658 30.3978 28.5 30 28.5ZM30.57 22.62C30.2048 22.47 29.7952 22.47 29.43 22.62C29.2459 22.6914 29.0777 22.7984 28.935 22.935C28.8025 23.0808 28.696 23.2482 28.62 23.43C28.536 23.608 28.4949 23.8032 28.5 24C28.4989 24.1974 28.5367 24.3931 28.6113 24.5759C28.686 24.7586 28.796 24.9248 28.935 25.065C29.0808 25.1975 29.2482 25.304 29.43 25.38C29.6573 25.4734 29.904 25.5095 30.1484 25.4852C30.3929 25.4609 30.6277 25.3769 30.8321 25.2406C31.0365 25.1043 31.2043 24.9199 31.3208 24.7036C31.4372 24.4873 31.4988 24.2457 31.5 24C31.4945 23.6028 31.3391 23.2224 31.065 22.935C30.9223 22.7984 30.7541 22.6914 30.57 22.62ZM30 15C27.0333 15 24.1332 15.8797 21.6665 17.528C19.1997 19.1762 17.2771 21.5189 16.1418 24.2597C15.0065 27.0006 14.7094 30.0166 15.2882 32.9263C15.867 35.8361 17.2956 38.5088 19.3934 40.6066C21.4912 42.7044 24.1639 44.133 27.0736 44.7118C29.9834 45.2905 32.9994 44.9935 35.7403 43.8582C38.4811 42.7229 40.8238 40.8003 42.472 38.3335C44.1203 35.8668 45 32.9667 45 30C45 28.0302 44.612 26.0796 43.8582 24.2597C43.1044 22.4399 41.9995 20.7863 40.6066 19.3934C39.2137 18.0005 37.5601 16.8956 35.7403 16.1418C33.9204 15.388 31.9698 15 30 15ZM30 42C27.6266 42 25.3066 41.2962 23.3332 39.9776C21.3598 38.659 19.8217 36.7849 18.9135 34.5922C18.0052 32.3995 17.7676 29.9867 18.2306 27.6589C18.6936 25.3311 19.8365 23.1929 21.5147 21.5147C23.193 19.8365 25.3311 18.6936 27.6589 18.2306C29.9867 17.7676 32.3995 18.0052 34.5922 18.9134C36.7849 19.8217 38.6591 21.3598 39.9776 23.3332C41.2962 25.3065 42 27.6266 42 30C42 33.1826 40.7357 36.2348 38.4853 38.4853C36.2348 40.7357 33.1826 42 30 42Z" fill="white"/>
</g>
<defs>
<clipPath id="clip0_157_4933">
<rect width="60" height="60" fill="white"/>
</clipPath>
</defs>
</svg>
