<svg width="40" height="40" viewBox="0 0 40 40" fill="none" xmlns="http://www.w3.org/2000/svg">
<path d="M34.0993 16.05C33.8653 13.6148 33.0047 11.2818 31.6013 9.27802C30.1979 7.27424 28.2995 5.66804 26.091 4.61581C23.8825 3.56358 21.4391 3.10119 18.9988 3.27366C16.5586 3.44613 14.2045 4.24759 12.166 5.59999C10.4146 6.77106 8.9444 8.31548 7.86089 10.1223C6.77737 11.9291 6.10747 13.9535 5.89931 16.05C5.69512 18.1327 5.9571 20.2348 6.66626 22.2038C7.37542 24.1727 8.51397 25.9591 9.99931 27.4333L18.8326 36.2833C18.9876 36.4395 19.1719 36.5635 19.375 36.6481C19.5781 36.7328 19.796 36.7763 20.016 36.7763C20.236 36.7763 20.4538 36.7328 20.6569 36.6481C20.86 36.5635 21.0444 36.4395 21.1993 36.2833L29.9993 27.4333C31.4847 25.9591 32.6232 24.1727 33.3324 22.2038C34.0415 20.2348 34.3035 18.1327 34.0993 16.05ZM27.666 25.0833L19.9993 32.75L12.3326 25.0833C11.2028 23.9534 10.3373 22.5872 9.79843 21.0829C9.25954 19.5786 9.06062 17.9736 9.21598 16.3833C9.37234 14.7685 9.88559 13.2086 10.7186 11.8164C11.5516 10.4242 12.6836 9.2345 14.0326 8.33332C15.8009 7.15871 17.8765 6.53214 19.9993 6.53214C22.1221 6.53214 24.1977 7.15871 25.966 8.33332C27.311 9.23101 28.4404 10.4155 29.2732 11.8015C30.1061 13.1876 30.6215 14.741 30.7826 16.35C30.9431 17.9457 30.7467 19.5571 30.2076 21.0676C29.6686 22.578 28.8004 23.9497 27.666 25.0833ZM19.9993 9.99999C18.516 9.99999 17.0659 10.4399 15.8325 11.264C14.5992 12.0881 13.6379 13.2594 13.0702 14.6299C12.5026 16.0003 12.354 17.5083 12.6434 18.9632C12.9328 20.418 13.6471 21.7544 14.696 22.8033C15.7449 23.8522 17.0813 24.5665 18.5361 24.8559C19.991 25.1453 21.499 24.9967 22.8694 24.4291C24.2399 23.8614 25.4112 22.9001 26.2353 21.6668C27.0594 20.4334 27.4993 18.9833 27.4993 17.5C27.4949 15.5122 26.7033 13.6071 25.2978 12.2015C23.8922 10.796 21.9871 10.0044 19.9993 9.99999ZM19.9993 21.6667C19.1752 21.6667 18.3696 21.4223 17.6844 20.9644C16.9992 20.5066 16.4652 19.8559 16.1498 19.0945C15.8345 18.3331 15.7519 17.4954 15.9127 16.6871C16.0735 15.8789 16.4703 15.1364 17.053 14.5537C17.6358 13.971 18.3782 13.5742 19.1864 13.4134C19.9947 13.2526 20.8325 13.3351 21.5938 13.6505C22.3552 13.9659 23.0059 14.4999 23.4638 15.1851C23.9216 15.8703 24.166 16.6759 24.166 17.5C24.166 18.6051 23.727 19.6649 22.9456 20.4463C22.1642 21.2277 21.1044 21.6667 19.9993 21.6667Z" fill="#B1B1B1"/>
</svg>
