<svg width="20" height="20" viewBox="0 0 20 20" fill="none" xmlns="http://www.w3.org/2000/svg">
<path d="M10 1.86987C8.23249 1.87181 6.53795 2.55768 5.28814 3.77701C4.03833 4.99634 3.33531 6.64955 3.33333 8.37394C3.33333 11.0203 5.3025 13.2178 7.38833 15.5439C8.04833 16.2804 8.73166 17.0422 9.34 17.813C9.41784 17.9115 9.51783 17.9913 9.63225 18.0462C9.74667 18.1011 9.87248 18.1296 10 18.1296C10.1275 18.1296 10.2533 18.1011 10.3677 18.0462C10.4822 17.9913 10.5821 17.9115 10.66 17.813C11.2683 17.0422 11.9517 16.2804 12.6117 15.5439C14.6975 13.2178 16.6667 11.0203 16.6667 8.37394C16.6647 6.64955 15.9617 4.99634 14.7118 3.77701C13.462 2.55768 11.7675 1.87181 10 1.86987ZM10 10.813C9.50554 10.813 9.02219 10.6699 8.61107 10.4019C8.19995 10.1339 7.87952 9.75299 7.6903 9.30731C7.50108 8.86164 7.45157 8.37123 7.54803 7.89811C7.64449 7.42498 7.8826 6.99039 8.23223 6.64929C8.58186 6.30818 9.02732 6.07589 9.51227 5.98178C9.99722 5.88767 10.4999 5.93597 10.9567 6.12057C11.4135 6.30518 11.804 6.61779 12.0787 7.01889C12.3534 7.41998 12.5 7.89154 12.5 8.37394C12.5 9.02081 12.2366 9.64118 11.7678 10.0986C11.2989 10.556 10.663 10.813 10 10.813Z" fill="#9700FF"/>
</svg>
