<svg width="54" height="54" viewBox="0 0 24 24" fill="none" xmlns="http://www.w3.org/2000/svg">
<path d="M13.0542 8.62921L18.7042 14.2892C18.7979 14.3822 18.8723 14.4928 18.9231 14.6146C18.9739 14.7365 19 14.8672 19 14.9992C19 15.1312 18.9739 15.2619 18.9231 15.3838C18.8723 15.5056 18.7979 15.6162 18.7042 15.7092C18.5168 15.8955 18.2634 16 17.9992 16C17.735 16 17.4816 15.8955 17.2942 15.7092L12.2942 10.7592L7.3442 15.7092C7.15684 15.8955 6.90339 16 6.6392 16C6.37502 16 6.12156 15.8955 5.9342 15.7092C5.83971 15.6166 5.76454 15.5061 5.71305 15.3843C5.66155 15.2624 5.63475 15.1315 5.6342 14.9992C5.63475 14.8669 5.66155 14.736 5.71305 14.6141C5.76454 14.4923 5.83971 14.3818 5.9342 14.2892L11.5842 8.62921C11.6778 8.5277 11.7915 8.44669 11.918 8.39129C12.0445 8.33588 12.1811 8.30728 12.3192 8.30728C12.4573 8.30728 12.5939 8.33588 12.7204 8.39129C12.8469 8.44669 12.9606 8.5277 13.0542 8.62921Z" fill="white"/>
</svg>
