<svg width="76" height="80" viewBox="0 0 76 80" fill="none" xmlns="http://www.w3.org/2000/svg">
<path d="M60.3168 40.8467C68.4988 40.8467 75.1316 34.2139 75.1316 26.0319C75.1316 17.8499 68.4988 11.217 60.3168 11.217C52.1348 11.217 45.502 17.8499 45.502 26.0319C45.502 34.2139 52.1348 40.8467 60.3168 40.8467Z" fill="#FFBC57"/>
<path d="M19.6828 25.3968C26.6959 25.3968 32.3812 19.7116 32.3812 12.6984C32.3812 5.68527 26.6959 0 19.6828 0C12.6696 0 6.98438 5.68527 6.98438 12.6984C6.98438 19.7116 12.6696 25.3968 19.6828 25.3968Z" fill="#FFBC57"/>
<path d="M21.164 80.0002C32.8526 80.0002 42.328 70.5247 42.328 58.8361C42.328 47.1476 32.8526 37.6721 21.164 37.6721C9.47546 37.6721 0 47.1476 0 58.8361C0 70.5247 9.47546 80.0002 21.164 80.0002Z" fill="#FFBC57"/>
<path d="M37.3546 23.3865C30.3705 24.233 24.6562 29.8415 23.7038 36.7198C23.1747 40.4235 23.9155 43.9156 25.6086 46.8785L23.4922 55.0267L31.6403 53.0161C34.6033 54.7092 38.0954 55.45 41.7991 54.9209C48.7832 53.8627 54.2858 48.2542 55.1324 41.2701C56.4022 30.7939 47.725 22.1166 37.3546 23.3865Z" fill="white"/>
<path d="M39.3654 55.873C36.614 55.873 33.9685 55.238 31.5347 53.8624L23.704 55.7671C23.3865 55.873 23.1749 55.7671 22.9632 55.5555C22.7516 55.3439 22.6458 55.0264 22.7516 54.8148L24.6564 46.9841C22.9632 43.8095 22.3283 40.2116 22.8574 36.6137C23.9156 29.2063 29.8415 23.492 37.249 22.5396C42.4341 21.9047 47.5135 23.5978 51.1114 27.3015C54.8151 31.0052 56.5082 35.9788 55.8733 41.164C54.9209 48.5714 49.2066 54.4973 41.7992 55.5555C41.0585 55.7671 40.2119 55.873 39.3654 55.873ZM31.6405 52.1693C31.7463 52.1693 31.9579 52.1693 32.0638 52.2751C35.0267 53.9682 38.3072 54.4973 41.6934 54.074C48.3601 53.1216 53.5453 47.7248 54.3918 41.0581C54.9209 36.4021 53.4394 31.746 50.0532 28.4655C46.7728 25.1851 42.1167 23.5978 37.4606 24.1269C30.7939 24.9735 25.3971 30.1587 24.4447 36.8253C23.9156 40.2116 24.5505 43.492 26.2437 46.455C26.3495 46.6666 26.3495 46.8783 26.3495 46.9841L24.6564 53.9682L31.5347 52.2751C31.5347 52.1693 31.6405 52.1693 31.6405 52.1693Z" fill="#2B2929"/>
<path d="M39.3659 44.3389C38.9426 44.3389 38.5194 44.0214 38.5194 43.4923V42.8574C38.5194 40.3177 40.0008 39.1537 41.1649 38.3072C42.2231 37.5664 42.9638 36.9315 42.9638 35.45C42.9638 33.7569 41.9056 32.3812 40.4241 31.958C39.2601 31.6405 37.9903 31.8521 37.0379 32.4871C36.0855 33.2278 35.5564 34.286 35.5564 35.45C35.5564 35.8733 35.2389 36.2966 34.7098 36.2966C34.2866 36.2966 33.8633 35.9791 33.8633 35.45C33.8633 33.7569 34.7098 32.1696 35.9797 31.2172C37.3553 30.159 39.0485 29.9474 40.7416 30.3707C42.9638 31.0056 44.4453 33.0162 44.4453 35.45C44.4453 37.7781 43.0696 38.7304 41.9056 39.577C40.8474 40.4236 39.895 41.0585 39.895 42.8574V43.4923C40.2125 44.0214 39.895 44.3389 39.3659 44.3389Z" fill="#FFBC57"/>
<path d="M40.1056 47.4075C39.6823 46.9843 39.0474 46.9843 38.6241 47.4075C38.4125 47.6192 38.3066 47.8308 38.3066 48.1483C38.3066 48.4658 38.4125 48.6774 38.6241 48.889C38.8357 49.1007 39.0474 49.2065 39.3648 49.2065C39.6823 49.2065 39.8939 49.1007 40.1056 48.889C40.3172 48.6774 40.423 48.4658 40.423 48.1483C40.423 47.8308 40.3172 47.5134 40.1056 47.4075Z" fill="#FFBC57"/>
<path d="M39.3645 70.8996C38.9412 70.8996 38.5179 70.5821 38.5179 70.053C38.5179 69.6297 38.8354 69.2065 39.3645 69.2065C55.8724 69.2065 69.3116 55.7673 69.3116 39.2594C69.3116 22.9631 55.8724 9.52393 39.3645 9.52393C22.9624 9.52393 9.5232 22.9631 9.5232 39.3652C9.5232 39.8943 9.20574 40.2118 8.67664 40.2118C8.25336 40.2118 7.83008 39.8943 7.83008 39.3652C7.83008 22.0107 21.9042 7.83081 39.2586 7.83081C56.6131 7.83081 70.8989 22.0107 70.8989 39.3652C70.8989 56.7197 56.719 70.8996 39.3645 70.8996Z" fill="#2B2929"/>
<path d="M42.539 73.2281H36.1898C33.8618 73.2281 31.957 71.3233 31.957 68.9953C31.957 66.6672 33.8618 64.7625 36.1898 64.7625H42.539C44.8671 64.7625 46.7718 66.6672 46.7718 68.9953C46.7718 71.4291 44.9729 73.2281 42.539 73.2281Z" fill="white"/>
<path d="M42.5399 74.0743H36.1907C33.4394 74.0743 31.1113 71.852 31.1113 68.9949C31.1113 66.2436 33.3336 63.9155 36.1907 63.9155H42.5399C45.2912 63.9155 47.6193 66.1377 47.6193 68.9949C47.6193 71.852 45.397 74.0743 42.5399 74.0743ZM36.1907 65.6086C34.2859 65.6086 32.6986 67.196 32.6986 69.1007C32.6986 71.0055 34.2859 72.5928 36.1907 72.5928H42.5399C44.4447 72.5928 46.032 71.0055 46.032 69.1007C46.032 67.196 44.4447 65.6086 42.5399 65.6086H36.1907Z" fill="#2B2929"/>
<path d="M13.9676 51.0058C9.31148 51.0058 5.50195 47.1962 5.50195 42.5402V36.191C5.50195 31.5349 9.31148 27.7253 13.9676 27.7253C15.1316 27.7253 16.084 28.6777 16.084 29.8417V48.8894C16.084 50.1592 15.1316 51.0058 13.9676 51.0058Z" fill="white"/>
<path d="M13.9684 51.852C8.88905 51.852 4.65625 47.725 4.65625 42.5398V36.1906C4.65625 31.1112 8.78323 26.8784 13.9684 26.8784C15.5557 26.8784 16.9314 28.1483 16.9314 29.8414V48.889C16.9314 50.5821 15.6615 51.852 13.9684 51.852ZM13.9684 28.5715C9.73561 28.5715 6.24355 32.0636 6.24355 36.2964V42.6456C6.24355 46.8784 9.73561 50.3705 13.9684 50.3705C14.7092 50.3705 15.3441 49.7356 15.3441 48.9948V29.9472C15.3441 29.2065 14.7092 28.5715 13.9684 28.5715Z" fill="#2B2929"/>
<path d="M10.7938 46.561C10.3705 46.561 9.94727 46.2435 9.94727 45.7144V33.016C9.94727 32.5927 10.2647 32.1694 10.7938 32.1694C11.2171 32.1694 11.6404 32.4869 11.6404 33.016V45.7144C11.6404 46.2435 11.3229 46.561 10.7938 46.561Z" fill="#2B2929"/>
<path d="M64.7629 51.0058C63.5989 51.0058 62.6465 50.0534 62.6465 48.8894V29.8417C62.6465 28.6777 63.5989 27.7253 64.7629 27.7253C69.419 27.7253 73.2285 31.5349 73.2285 36.191V42.5402C73.2285 47.3021 69.5248 51.0058 64.7629 51.0058Z" fill="white"/>
<path d="M64.7614 51.852C63.1741 51.852 61.9043 50.5821 61.9043 48.889V29.8414C61.9043 28.2541 63.1741 26.8784 64.7614 26.8784C69.8408 26.8784 74.0736 31.0054 74.0736 36.1906V42.5398C74.0736 47.725 69.9466 51.852 64.7614 51.852ZM64.7614 28.5715C64.0207 28.5715 63.4916 29.2065 63.4916 29.9472V48.9948C63.4916 49.7356 64.1265 50.3705 64.7614 50.3705C68.9942 50.3705 72.4863 46.8784 72.4863 42.6456V36.2964C72.4863 31.9578 68.9942 28.5715 64.7614 28.5715Z" fill="#2B2929"/>
<path d="M67.9364 46.561C67.5131 46.561 67.0898 46.2435 67.0898 45.7144V33.016C67.0898 32.5927 67.4073 32.1694 67.9364 32.1694C68.3597 32.1694 68.783 32.4869 68.783 33.016V45.7144C68.783 46.2435 68.4655 46.561 67.9364 46.561Z" fill="#2B2929"/>
<path d="M21.4813 18.5187C21.5871 18.4129 21.5871 18.5187 21.4813 18.5187C21.2697 18.6245 20.9522 18.8362 20.6348 18.942C21.058 18.8362 21.2697 18.7304 21.4813 18.5187Z" fill="#FFBC57"/>
<path d="M39.3652 5.50317C30.8996 5.50317 23.1747 8.57196 17.2488 13.7571C16.1906 14.6037 16.1906 16.191 17.143 17.1434L18.4128 18.4132C19.2594 19.2598 20.635 19.2598 21.5874 18.519C26.3493 14.3921 32.5927 11.9582 39.471 11.9582C46.2435 11.9582 52.5927 14.3921 57.3546 18.519C58.307 19.2598 59.6827 19.2598 60.5292 18.4132L61.7991 17.1434C62.7515 16.191 62.7515 14.6037 61.6933 13.7571C55.6615 8.67778 47.8308 5.50317 39.3652 5.50317Z" fill="white"/>
<path d="M58.8371 19.8945C58.0963 19.8945 57.3556 19.6828 56.8265 19.1537C51.9588 14.9209 45.8212 12.6987 39.3662 12.6987C33.017 12.6987 26.8794 15.0268 22.0117 19.1537C20.7418 20.2119 18.9429 20.2119 17.7789 19.0479L16.509 17.7781C15.8741 17.1432 15.5566 16.2966 15.5566 15.45C15.5566 14.6035 15.9799 13.7569 16.6148 13.2278C22.8582 7.83099 30.9006 4.76221 39.2603 4.76221C47.6201 4.76221 55.6625 7.72517 61.9058 13.2278C62.5408 13.7569 62.964 14.6035 62.964 15.45C62.964 16.2966 62.6466 17.1432 62.0117 17.7781L60.7418 19.0479C60.4244 19.577 59.5778 19.8945 58.8371 19.8945ZM39.3662 11.1114C46.1387 11.1114 52.5937 13.5453 57.7789 17.8839C58.4138 18.413 59.2603 18.413 59.8953 17.7781L61.1651 16.5082C61.4826 16.1908 61.5884 15.7675 61.5884 15.3442C61.5884 14.9209 61.3767 14.4977 61.0593 14.286C55.0275 9.20665 47.3027 6.34951 39.3662 6.34951C31.4297 6.34951 23.7048 9.20665 17.7789 14.3918C17.4614 14.7093 17.2498 15.0268 17.2498 15.45C17.2498 15.8733 17.3556 16.2966 17.673 16.6141L18.9429 17.8839C19.472 18.413 20.4244 18.5188 21.0593 17.9897C26.1387 13.5453 32.6995 11.1114 39.3662 11.1114Z" fill="#2B2929"/>
</svg>
