<svg width="87" height="86" viewBox="0 0 87 86" fill="none" xmlns="http://www.w3.org/2000/svg">
<g filter="url(#filter0_d_39_4923)">
<path d="M41.4004 77.5C49.1324 77.5 55.4004 71.232 55.4004 63.5C55.4004 55.768 49.1324 49.5 41.4004 49.5C33.6684 49.5 27.4004 55.768 27.4004 63.5C27.4004 71.232 33.6684 77.5 41.4004 77.5Z" fill="#FFBC57"/>
<path d="M16 38.5C22.6274 38.5 28 33.1274 28 26.5C28 19.8726 22.6274 14.5 16 14.5C9.37258 14.5 4 19.8726 4 26.5C4 33.1274 9.37258 38.5 16 38.5Z" fill="#FFBC57"/>
<path d="M62.5996 49C73.6453 49 82.5996 40.0457 82.5996 29C82.5996 17.9543 73.6453 9 62.5996 9C51.5539 9 42.5996 17.9543 42.5996 29C42.5996 40.0457 51.5539 49 62.5996 49Z" fill="#FFBC57"/>
<path d="M73.8008 35.2L45.8008 25.2L17.8008 35.2L45.8008 45.2L73.8008 35.2Z" fill="white"/>
<path d="M40.8008 27L17.8008 35.2L40.8008 43.5V27Z" fill="white"/>
<path d="M68.0008 37.2999L45.8008 29.3999V45.1999L68.0008 37.2999Z" fill="white"/>
<path d="M45.8 45.9999C45.7 45.9999 45.6 45.9999 45.5 45.9999L17.5 35.9999C17.2 35.8999 17 35.5999 17 35.2999C17 34.9999 17.2 34.6999 17.5 34.5999L45.5 24.5999C45.7 24.4999 45.8 24.4999 46 24.5999L74 34.5999C74.3 34.6999 74.5 34.9999 74.5 35.2999C74.5 35.5999 74.3 35.8999 74 35.9999L46 45.9999C45.9 45.9999 45.8 45.9999 45.8 45.9999ZM20 35.1999L45.8 44.3999L71.6 35.1999L45.8 25.9999L20 35.1999Z" fill="#2B2929"/>
<path d="M41.8008 18.2L13.8008 28.2L17.8008 35.2L45.8008 25.2L41.8008 18.2Z" fill="white"/>
<path d="M45.8008 25.2L41.8008 18.2L35.5008 20.5L36.8008 22.7999C37.4008 23.8999 36.9008 25.3 35.7008 25.7L16.3008 32.6L17.8008 35.2L45.8008 25.2Z" fill="white"/>
<path d="M17.8004 36C17.5004 36 17.3004 35.9 17.1004 35.6L13.1004 28.6C13.0004 28.4 13.0004 28.2 13.1004 28C13.2004 27.8 13.3004 27.6 13.6004 27.6L41.6004 17.6C41.9004 17.5 42.3004 17.6 42.5004 17.9L46.5004 24.9C46.6004 25.1 46.6004 25.3 46.6004 25.5C46.5004 25.7 46.4004 25.9 46.1004 25.9L18.0004 36C17.9004 36 17.8004 36 17.8004 36ZM14.9004 28.7L18.1004 34.4L44.7004 24.9L41.5004 19.2L14.9004 28.7Z" fill="#2B2929"/>
<path d="M49.8008 18.2L77.8008 28.2L73.8008 35.2L45.8008 25.2L49.8008 18.2Z" fill="white"/>
<path d="M73.7993 35.9999C73.6993 35.9999 73.5993 35.9999 73.4993 35.9999L45.4993 25.9999C45.2993 25.8999 45.0993 25.7999 44.9993 25.5999C44.8993 25.3999 44.8993 25.1999 45.0993 24.9999L49.0993 17.9999C49.2993 17.6999 49.6993 17.4999 49.9993 17.6999L77.9993 27.6999C78.1993 27.7999 78.3993 27.8999 78.4993 28.0999C78.5993 28.2999 78.5993 28.4999 78.3993 28.6999L74.3993 35.6999C74.2993 35.8999 73.9993 35.9999 73.7993 35.9999ZM46.8993 24.7999L73.4993 34.2999L76.6993 28.5999L50.0993 19.0999L46.8993 24.7999Z" fill="#2B2929"/>
<path d="M45.8008 70.1999L17.8008 60.2V35.2L45.8008 45.2V70.1999Z" fill="white"/>
<path d="M39.4008 63.7999L17.8008 56V35.2L40.8008 43.4V62.7999C40.8008 63.5 40.1008 64 39.4008 63.7999Z" fill="white"/>
<path d="M45.8 71C45.7 71 45.6 71 45.5 71L17.5 61C17.2 60.9 17 60.6 17 60.3V35.3C17 35.1 17.1 34.8 17.3 34.7C17.5 34.6 17.8 34.5 18 34.6L46 44.6C46.3 44.7 46.5 45 46.5 45.3V70.3C46.5 70.5 46.4 70.8 46.2 70.9C46.1 71 45.9 71 45.8 71ZM18.5 59.7L45 69.2V45.8L18.5 36.3V59.7Z" fill="#2B2929"/>
<path d="M41.8008 52.2L13.8008 42.2L17.8008 35.2L45.8008 45.2L41.8008 52.2Z" fill="white"/>
<path d="M37.1992 47.7L15.1992 39.7999L17.7992 35.2L41.3992 43.5999L39.5992 46.7C39.0992 47.6 38.0992 48 37.1992 47.7Z" fill="white"/>
<path d="M41.8 53C41.7 53 41.6 53 41.5 53L13.5 43C13.3 42.9 13.1 42.8 13 42.6C13 42.3 13 42.1 13.1 41.9L17.1 34.9C17.3 34.6 17.7 34.4 18 34.6L46 44.6C46.2 44.7 46.4 44.8 46.5 45C46.6 45.2 46.6 45.4 46.4 45.6L42.4 52.6C42.3 52.9 42 53 41.8 53ZM14.9 41.8L41.5 51.3L44.7 45.6L18.1 36.1L14.9 41.8Z" fill="#2B2929"/>
<path d="M45.8008 70.1999L73.8008 60.2V35.2L45.8008 45.2V70.1999Z" fill="white"/>
<path d="M45.8008 65.7999L68.5008 57.7C69.3008 57.4 69.8008 56.6999 69.8008 55.7999V36.7L45.8008 45.2999V65.7999Z" fill="white"/>
<path d="M45.7996 71C45.5996 71 45.4996 71 45.3996 70.9C45.1996 70.8 45.0996 70.5 45.0996 70.3V45.3C45.0996 45 45.2996 44.7 45.5996 44.6L73.5996 34.6C73.7996 34.5 74.0996 34.6 74.2996 34.7C74.4996 34.8 74.5996 35.1 74.5996 35.3V60.3C74.5996 60.6 74.3996 60.9 74.0996 61L45.9996 71C45.8996 71 45.7996 71 45.7996 71ZM46.4996 45.8V69.2L72.9996 59.7V36.3L46.4996 45.8Z" fill="#2B2929"/>
<path d="M49.8008 52.2L77.8008 42.2L73.8008 35.2L45.8008 45.2L49.8008 52.2Z" fill="white"/>
<path d="M48.3008 49.6L69.5008 42C70.7008 41.6 71.2008 40.2 70.6008 39.1L69.3008 36.8L45.8008 45.2001L48.3008 49.6Z" fill="white"/>
<path d="M49.8004 53C49.5004 53 49.3004 52.9 49.1004 52.6L45.1004 45.6C45.0004 45.4 45.0004 45.2 45.1004 45C45.2004 44.8 45.3004 44.6 45.6004 44.6L73.6004 34.6C73.9004 34.5 74.3004 34.6 74.5004 34.9L78.5004 41.9C78.6004 42.1 78.6004 42.3 78.6004 42.5C78.5004 42.7 78.4004 42.9 78.1004 42.9L50.0004 53C49.9004 53 49.8004 53 49.8004 53ZM46.9004 45.7L50.1004 51.4L76.7004 41.9L73.5004 36.2L46.9004 45.7Z" fill="#2B2929"/>
<path d="M51.8008 19.5V39.7999H39.8008V19.5H31.8008L45.8008 5.19995L59.7008 19.5H51.8008Z" fill="white"/>
<path d="M46.3002 39H40.5002V19.5C40.5002 19.1 40.2002 18.7 39.7002 18.7H33.5002L45.8002 6.3L49.0002 9.6C49.1002 9.7 49.2002 9.7 49.3002 9.6L50.0002 8.8C50.1002 8.7 50.1002 8.6 50.0002 8.5L46.3002 4.7C46.2002 4.6 46.0002 4.5 45.8002 4.5C45.6002 4.5 45.4002 4.6 45.3002 4.7L31.2002 19C31.0002 19.2 30.9002 19.5 31.0002 19.8C31.1002 20.1 31.4002 20.3 31.7002 20.3H39.0002V39.8C39.0002 40.2 39.3002 40.6 39.8002 40.6H46.3002C46.4002 40.6 46.5002 40.5 46.5002 40.4V39.3C46.5002 39.1 46.4002 39 46.3002 39Z" fill="#FFBC57"/>
<path d="M51 9.89995L50.2 10.7C50.1 10.8 50.1 10.9 50.2 11L57.9 18.8H51.7C51.3 18.8 50.9 19.1 50.9 19.6V39H48.1C48 39 48 39.1 48 39.2V40.2999C48 40.4 48.1 40.5 48.2 40.5H51.8C52.2 40.5 52.6 40.2 52.6 39.7V20.3H59.8C60.1 20.3 60.4 20.1 60.5 19.8C60.6 19.5 60.6 19.2 60.3 19L51.4 9.89995C51.3 9.79995 51.1 9.79995 51 9.89995Z" fill="#2B2929"/>
</g>
<defs>
<filter id="filter0_d_39_4923" x="-1" y="0" width="88" height="88" filterUnits="userSpaceOnUse" color-interpolation-filters="sRGB">
<feFlood flood-opacity="0" result="BackgroundImageFix"/>
<feColorMatrix in="SourceAlpha" type="matrix" values="0 0 0 0 0 0 0 0 0 0 0 0 0 0 0 0 0 0 127 0" result="hardAlpha"/>
<feOffset dy="4"/>
<feGaussianBlur stdDeviation="2"/>
<feComposite in2="hardAlpha" operator="out"/>
<feColorMatrix type="matrix" values="0 0 0 0 0 0 0 0 0 0 0 0 0 0 0 0 0 0 0.25 0"/>
<feBlend mode="normal" in2="BackgroundImageFix" result="effect1_dropShadow_39_4923"/>
<feBlend mode="normal" in="SourceGraphic" in2="effect1_dropShadow_39_4923" result="shape"/>
</filter>
</defs>
</svg>
