<svg width="108" height="108" viewBox="0 0 108 108" fill="none" xmlns="http://www.w3.org/2000/svg">
<g clip-path="url(#clip0_195_5298)" filter="url(#filter0_dd_195_5298)">
<circle cx="54" cy="50" r="50" fill="#FFBC57"/>
<path d="M80.1793 33.5437L74.4571 27.8214C73.4032 26.7675 71.6518 26.7221 70.5444 27.7178L48.7348 47.3347C47.6274 48.3303 45.8189 48.3454 44.6952 47.3673L38.768 42.2051C37.6443 41.2269 35.8801 41.2875 34.8262 42.3413L27.7904 49.3772C26.7365 50.431 26.7365 52.1381 27.7904 53.192L45.4218 70.8234C45.4218 70.8234 45.9936 71.3952 46.6981 72.0997C47.4026 72.8042 48.7825 72.4782 49.7782 71.3708L80.2807 37.4575C81.2786 36.3489 81.232 34.5975 80.1793 33.5437Z" fill="white"/>
</g>
<defs>
<filter id="filter0_dd_195_5298" x="0" y="0" width="108" height="108" filterUnits="userSpaceOnUse" color-interpolation-filters="sRGB">
<feFlood flood-opacity="0" result="BackgroundImageFix"/>
<feColorMatrix in="SourceAlpha" type="matrix" values="0 0 0 0 0 0 0 0 0 0 0 0 0 0 0 0 0 0 127 0" result="hardAlpha"/>
<feOffset dy="4"/>
<feGaussianBlur stdDeviation="2"/>
<feComposite in2="hardAlpha" operator="out"/>
<feColorMatrix type="matrix" values="0 0 0 0 0 0 0 0 0 0 0 0 0 0 0 0 0 0 0.25 0"/>
<feBlend mode="normal" in2="BackgroundImageFix" result="effect1_dropShadow_195_5298"/>
<feColorMatrix in="SourceAlpha" type="matrix" values="0 0 0 0 0 0 0 0 0 0 0 0 0 0 0 0 0 0 127 0" result="hardAlpha"/>
<feOffset dy="4"/>
<feGaussianBlur stdDeviation="2"/>
<feComposite in2="hardAlpha" operator="out"/>
<feColorMatrix type="matrix" values="0 0 0 0 0 0 0 0 0 0 0 0 0 0 0 0 0 0 0.25 0"/>
<feBlend mode="normal" in2="effect1_dropShadow_195_5298" result="effect2_dropShadow_195_5298"/>
<feBlend mode="normal" in="SourceGraphic" in2="effect2_dropShadow_195_5298" result="shape"/>
</filter>
<clipPath id="clip0_195_5298">
<rect width="100" height="100" fill="white" transform="translate(4)"/>
</clipPath>
</defs>
</svg>
