<svg width="100" height="100" viewBox="0 0 100 100" fill="none" xmlns="http://www.w3.org/2000/svg">
<g clip-path="url(#clip0_193_5079)">
<circle cx="50" cy="50" r="50" fill="#FFBC57"/>
<path fill-rule="evenodd" clip-rule="evenodd" d="M28.125 28.5C27.1904 28.5 26.5 29.1904 26.5 30.125V51.875C26.5 52.9663 27.2122 53.5 27.75 53.5H30.2491C30.9395 53.5 31.5 54.0596 31.5 54.75C31.5 55.4404 30.9404 56 30.25 56H27.75C25.5378 56 24 54.0337 24 51.875V30.125C24 27.8096 25.8096 26 28.125 26H63.625C65.9404 26 67.75 27.8096 67.75 30.125V41C67.75 41.6904 67.1904 42.25 66.5 42.25C65.8096 42.25 65.25 41.6904 65.25 41V30.125C65.25 29.1904 64.5596 28.5 63.625 28.5H28.125Z" fill="white"/>
<path fill-rule="evenodd" clip-rule="evenodd" d="M24 33.5C24 32.8096 24.5596 32.25 25.25 32.25H66.5C67.1904 32.25 67.75 32.8096 67.75 33.5V38.5C67.75 39.1904 67.1904 39.75 66.5 39.75H25.25C24.5596 39.75 24 39.1904 24 38.5V33.5ZM26.5 34.75V37.25H65.25V34.75H26.5Z" fill="white"/>
<path fill-rule="evenodd" clip-rule="evenodd" d="M36.875 46C35.9404 46 35.25 46.6904 35.25 47.625V69.375C35.25 70.3096 35.9404 71 36.875 71H72.25C73.2191 71 74 70.1507 74 69.375V47.625C74 46.6904 73.3096 46 72.375 46H36.875ZM32.75 47.625C32.75 45.3096 34.5596 43.5 36.875 43.5H72.375C74.6904 43.5 76.5 45.3096 76.5 47.625V69.375C76.5 71.5993 74.531 73.5 72.25 73.5H36.875C34.5596 73.5 32.75 71.6904 32.75 69.375V47.625Z" fill="white"/>
<path fill-rule="evenodd" clip-rule="evenodd" d="M39 66C39 65.3096 39.5596 64.75 40.25 64.75H46.5C47.1904 64.75 47.75 65.3096 47.75 66C47.75 66.6904 47.1904 67.25 46.5 67.25H40.25C39.5596 67.25 39 66.6904 39 66Z" fill="white"/>
<path fill-rule="evenodd" clip-rule="evenodd" d="M50.25 66C50.25 65.3096 50.8096 64.75 51.5 64.75H57.75C58.4404 64.75 59 65.3096 59 66C59 66.6904 58.4404 67.25 57.75 67.25H51.5C50.8096 67.25 50.25 66.6904 50.25 66Z" fill="white"/>
<path fill-rule="evenodd" clip-rule="evenodd" d="M61.5 66C61.5 65.3096 62.0596 64.75 62.75 64.75H69C69.6904 64.75 70.25 65.3096 70.25 66C70.25 66.6904 69.6904 67.25 69 67.25H62.75C62.0596 67.25 61.5 66.6904 61.5 66Z" fill="white"/>
<path fill-rule="evenodd" clip-rule="evenodd" d="M65.875 53.5C64.8395 53.5 64 54.3395 64 55.375C64 56.4105 64.8395 57.25 65.875 57.25C66.9105 57.25 67.75 56.4105 67.75 55.375C67.75 54.3395 66.9105 53.5 65.875 53.5ZM61.5 55.375C61.5 52.9588 63.4588 51 65.875 51C68.2912 51 70.25 52.9588 70.25 55.375C70.25 57.7912 68.2912 59.75 65.875 59.75C63.4588 59.75 61.5 57.7912 61.5 55.375Z" fill="white"/>
</g>
<defs>
<clipPath id="clip0_193_5079">
<rect width="100" height="100" fill="white"/>
</clipPath>
</defs>
</svg>
