<svg width="100" height="100" viewBox="0 0 100 100" fill="none" xmlns="http://www.w3.org/2000/svg">
<g clip-path="url(#clip0_194_5272)">
<circle cx="50" cy="50" r="50" fill="#FFBC57"/>
<path d="M45.5562 23.556C32.7477 25.746 23 36.9019 23 50.3334C23 65.3377 35.1635 77.5 50.1666 77.5C63.5993 77.5 74.754 67.7512 76.944 54.9427C77.3748 52.4203 75.2601 50.3323 72.7007 50.3323H54.7989C52.2407 50.3323 50.1666 48.2581 50.1666 45.6999V27.7993C50.1666 25.241 48.0785 23.1252 45.5562 23.556Z" fill="white"/>
<path d="M54.6055 30.816V42.7942C54.6055 44.5058 55.9929 45.8932 57.7045 45.8932H69.6827C71.3944 45.8932 72.8095 44.4954 72.5212 42.8081C71.2276 35.2411 65.2565 29.2688 57.6895 27.9752C56.0033 27.6891 54.6055 29.1043 54.6055 30.816Z" fill="white"/>
</g>
<defs>
<clipPath id="clip0_194_5272">
<rect width="100" height="100" fill="white"/>
</clipPath>
</defs>
</svg>
