<svg width="100" height="100" viewBox="0 0 100 100" fill="none" xmlns="http://www.w3.org/2000/svg">
<g clip-path="url(#clip0_187_4612)">
<circle cx="50" cy="50" r="50" fill="#FFBC57"/>
<path d="M71.269 33.0441H58.8807V29.6664C58.8807 27.6086 57.2074 25.9457 55.1497 25.9457H28.7206C26.6629 25.9457 25 27.619 25 29.6664V70.3336C25 72.3914 26.6732 74.0542 28.7206 74.0542H55.1497C57.2074 74.0542 58.8807 72.381 58.8807 70.3336V65.2723H71.269C73.3268 65.2723 75 63.599 75 61.5516V36.7751C74.9896 34.7173 73.3164 33.0441 71.269 33.0441ZM67.6003 35.5383V62.778H65.1995V35.5383H67.6003ZM56.3864 70.3232C56.3864 70.9987 55.8356 71.5496 55.1497 71.5496H28.7206C28.0451 71.5496 27.4943 70.9987 27.4943 70.3232V29.6664C27.4943 28.9908 28.0451 28.44 28.7206 28.44H55.1497C55.8252 28.44 56.3864 28.9908 56.3864 29.6664V70.3232ZM58.8807 35.5383H62.7157V62.778H58.8807V35.5383ZM72.4953 61.5413C72.4953 62.2168 71.9445 62.7676 71.2586 62.7676H70.0946V35.5383H71.2586C71.9341 35.5383 72.4953 36.0892 72.4953 36.7647V61.5413Z" fill="white"/>
<path d="M34.7896 48.2488H49.0798C50.8361 48.2488 52.26 46.825 52.26 45.0686V35.7254C52.26 33.969 50.8361 32.5452 49.0798 32.5452H34.7896C33.0332 32.5452 31.6094 33.969 31.6094 35.7254V45.0686C31.6094 46.825 33.0332 48.2488 34.7896 48.2488ZM34.1037 35.7254C34.1037 35.3409 34.4154 35.0395 34.7896 35.0395H49.0798C49.4643 35.0395 49.7657 35.3513 49.7657 35.7254V45.0686C49.7657 45.4531 49.4539 45.7545 49.0798 45.7545H34.7896C34.4051 45.7545 34.1037 45.4428 34.1037 45.0686V35.7254Z" fill="white"/>
<path d="M34.509 53.4244H32.8565C32.1706 53.4244 31.6094 53.9857 31.6094 54.6716C31.6094 55.3575 32.1706 55.9187 32.8565 55.9187H34.509C35.1949 55.9187 35.7561 55.3575 35.7561 54.6716C35.7561 53.9857 35.1949 53.4244 34.509 53.4244Z" fill="white"/>
<path d="M42.7609 53.4244H41.1085C40.4225 53.4244 39.8613 53.9857 39.8613 54.6716C39.8613 55.3575 40.4225 55.9187 41.1085 55.9187H42.7609C43.4469 55.9187 44.0081 55.3575 44.0081 54.6716C44.0081 53.9857 43.4469 53.4244 42.7609 53.4244Z" fill="white"/>
<path d="M51.0246 53.4244H49.3721C48.6862 53.4244 48.125 53.9857 48.125 54.6716C48.125 55.3575 48.6862 55.9187 49.3721 55.9187H51.0246C51.7105 55.9187 52.2717 55.3575 52.2717 54.6716C52.2717 53.9857 51.7105 53.4244 51.0246 53.4244Z" fill="white"/>
<path d="M34.509 59.0574H32.8565C32.1706 59.0574 31.6094 59.6186 31.6094 60.3045C31.6094 60.9904 32.1706 61.5517 32.8565 61.5517H34.509C35.1949 61.5517 35.7561 60.9904 35.7561 60.3045C35.7561 59.6186 35.1949 59.0574 34.509 59.0574Z" fill="white"/>
<path d="M42.7609 59.0574H41.1085C40.4225 59.0574 39.8613 59.6186 39.8613 60.3045C39.8613 60.9904 40.4225 61.5517 41.1085 61.5517H42.7609C43.4469 61.5517 44.0081 60.9904 44.0081 60.3045C44.0081 59.6186 43.4469 59.0574 42.7609 59.0574Z" fill="white"/>
<path d="M51.0246 59.0574H49.3721C48.6862 59.0574 48.125 59.6186 48.125 60.3045C48.125 60.9904 48.6862 61.5517 49.3721 61.5517H51.0246C51.7105 61.5517 52.2717 60.9904 52.2717 60.3045C52.2717 59.6186 51.7105 59.0574 51.0246 59.0574Z" fill="white"/>
<path d="M34.509 64.6903H32.8565C32.1706 64.6903 31.6094 65.2515 31.6094 65.9374C31.6094 66.6234 32.1706 67.1846 32.8565 67.1846H34.509C35.1949 67.1846 35.7561 66.6234 35.7561 65.9374C35.7561 65.2515 35.1949 64.6903 34.509 64.6903Z" fill="white"/>
<path d="M42.7609 64.6903H41.1085C40.4225 64.6903 39.8613 65.2515 39.8613 65.9374C39.8613 66.6234 40.4225 67.1846 41.1085 67.1846H42.7609C43.4469 67.1846 44.0081 66.6234 44.0081 65.9374C44.0081 65.2515 43.4469 64.6903 42.7609 64.6903Z" fill="white"/>
<path d="M51.0246 64.6903H49.3721C48.6862 64.6903 48.125 65.2515 48.125 65.9374C48.125 66.6234 48.6862 67.1846 49.3721 67.1846H51.0246C51.7105 67.1846 52.2717 66.6234 52.2717 65.9374C52.2717 65.2515 51.7105 64.6903 51.0246 64.6903Z" fill="white"/>
</g>
<defs>
<clipPath id="clip0_187_4612">
<rect width="100" height="100" fill="white"/>
</clipPath>
</defs>
</svg>
