<svg width="100" height="100" viewBox="0 0 100 100" fill="none" xmlns="http://www.w3.org/2000/svg">
<g clip-path="url(#clip0_193_5084)">
<circle cx="50" cy="50" r="50" fill="#FFBC57"/>
<path fill-rule="evenodd" clip-rule="evenodd" d="M63.4969 24.1835C63.8684 24.4106 64.0949 24.8146 64.0949 25.25V47.6297C64.0949 48.3201 63.5353 48.8797 62.8449 48.8797C62.1546 48.8797 61.5949 48.3201 61.5949 47.6297V27.2947L58.0173 29.1271C57.6556 29.3124 57.2263 29.3102 56.8664 29.1213L52.1816 26.6618L47.4969 29.1213C47.133 29.3123 46.6986 29.3123 46.3348 29.1213L41.65 26.6618L36.9652 29.1213C36.5973 29.3145 36.1574 29.3122 35.7916 29.1151L32.5 27.3428V67.8954L35.9134 66.018C36.2885 65.8117 36.7431 65.8117 37.1182 66.018L41.7816 68.5829L46.4451 66.018C47.05 65.6853 47.81 65.906 48.1427 66.5109C48.4754 67.1158 48.2548 67.8759 47.6499 68.2086L42.384 71.1048C42.0089 71.3111 41.5544 71.3111 41.1792 71.1048L36.5158 68.5399L31.8524 71.1048C31.4652 71.3177 30.9942 71.3104 30.6138 71.0855C30.2334 70.8605 30 70.4514 30 70.0095V25.25C30 24.81 30.2313 24.4025 30.609 24.1769C30.9867 23.9512 31.4552 23.9408 31.8426 24.1494L36.3916 26.5989L41.069 24.1433C41.4328 23.9523 41.8672 23.9523 42.231 24.1433L46.9158 26.6028L51.6006 24.1433C51.9644 23.9523 52.3989 23.9523 52.7627 24.1433L57.4546 26.6065L62.2751 24.1374C62.6626 23.939 63.1255 23.9564 63.4969 24.1835Z" fill="white"/>
<path fill-rule="evenodd" clip-rule="evenodd" d="M41.8477 37.0981C41.8477 36.4077 42.4073 35.8481 43.0977 35.8481H56.2622C56.9526 35.8481 57.5122 36.4077 57.5122 37.0981C57.5122 37.7884 56.9526 38.3481 56.2622 38.3481H43.0977C42.4073 38.3481 41.8477 37.7884 41.8477 37.0981Z" fill="white"/>
<path fill-rule="evenodd" clip-rule="evenodd" d="M35.2656 50.2626C35.2656 49.5723 35.8253 49.0126 36.5156 49.0126H52.3131C53.0034 49.0126 53.5631 49.5723 53.5631 50.2626C53.5631 50.953 53.0034 51.5126 52.3131 51.5126H36.5156C35.8253 51.5126 35.2656 50.953 35.2656 50.2626Z" fill="white"/>
<path fill-rule="evenodd" clip-rule="evenodd" d="M35.2656 55.5285C35.2656 54.8381 35.8253 54.2785 36.5156 54.2785H45.7308C46.4212 54.2785 46.9808 54.8381 46.9808 55.5285C46.9808 56.2189 46.4212 56.7785 45.7308 56.7785H36.5156C35.8253 56.7785 35.2656 56.2189 35.2656 55.5285Z" fill="white"/>
<path fill-rule="evenodd" clip-rule="evenodd" d="M41.8477 42.364C41.8477 41.6736 42.4073 41.114 43.0977 41.114H52.3128C53.0032 41.114 53.5628 41.6736 53.5628 42.364C53.5628 43.0543 53.0032 43.614 52.3128 43.614H43.0977C42.4073 43.614 41.8477 43.0543 41.8477 42.364Z" fill="white"/>
<path fill-rule="evenodd" clip-rule="evenodd" d="M35.2656 37.0981C35.2656 36.4077 35.8253 35.8481 36.5156 35.8481H39.1485C39.8389 35.8481 40.3985 36.4077 40.3985 37.0981C40.3985 37.7884 39.8389 38.3481 39.1485 38.3481H36.5156C35.8253 38.3481 35.2656 37.7884 35.2656 37.0981Z" fill="white"/>
<path fill-rule="evenodd" clip-rule="evenodd" d="M35.2656 42.364C35.2656 41.6736 35.8253 41.114 36.5156 41.114H39.1485C39.8389 41.114 40.3985 41.6736 40.3985 42.364C40.3985 43.0543 39.8389 43.614 39.1485 43.614H36.5156C35.8253 43.614 35.2656 43.0543 35.2656 42.364Z" fill="white"/>
<path fill-rule="evenodd" clip-rule="evenodd" d="M61.5278 52.8291C55.6746 52.8291 50.9297 57.574 50.9297 63.4272C50.9297 69.2804 55.6746 74.0253 61.5278 74.0253C67.381 74.0253 72.1259 69.2804 72.1259 63.4272C72.1259 57.574 67.381 52.8291 61.5278 52.8291ZM48.4297 63.4272C48.4297 56.1933 54.2939 50.3291 61.5278 50.3291C68.7617 50.3291 74.6259 56.1933 74.6259 63.4272C74.6259 70.6611 68.7617 76.5253 61.5278 76.5253C54.2939 76.5253 48.4297 70.6611 48.4297 63.4272Z" fill="white"/>
<path fill-rule="evenodd" clip-rule="evenodd" d="M60.213 59.4114C59.4552 59.4114 58.8301 60.0365 58.8301 60.7943C58.8301 61.552 59.4552 62.1772 60.213 62.1772H62.8459C64.9844 62.1772 66.7288 63.9217 66.7288 66.0601C66.7288 68.1986 64.9844 69.943 62.8459 69.943H57.5801C56.8897 69.943 56.3301 69.3834 56.3301 68.693C56.3301 68.0027 56.8897 67.443 57.5801 67.443H62.8459C63.6036 67.443 64.2288 66.8179 64.2288 66.0601C64.2288 65.3024 63.6036 64.6772 62.8459 64.6772H60.213C58.0745 64.6772 56.3301 62.9327 56.3301 60.7943C56.3301 58.6558 58.0745 56.9114 60.213 56.9114H65.4788C66.1692 56.9114 66.7288 57.471 66.7288 58.1614C66.7288 58.8517 66.1692 59.4114 65.4788 59.4114H60.213Z" fill="white"/>
<path fill-rule="evenodd" clip-rule="evenodd" d="M66.8594 63.4272C66.8594 62.7369 67.419 62.1772 68.1094 62.1772H70.7423C71.4326 62.1772 71.9923 62.7369 71.9923 63.4272C71.9923 64.1176 71.4326 64.6772 70.7423 64.6772H68.1094C67.419 64.6772 66.8594 64.1176 66.8594 63.4272Z" fill="white"/>
<path fill-rule="evenodd" clip-rule="evenodd" d="M51.0625 63.4272C51.0625 62.7369 51.6221 62.1772 52.3125 62.1772H54.9454C55.6358 62.1772 56.1954 62.7369 56.1954 63.4272C56.1954 64.1176 55.6358 64.6772 54.9454 64.6772H52.3125C51.6221 64.6772 51.0625 64.1176 51.0625 63.4272Z" fill="white"/>
</g>
<defs>
<clipPath id="clip0_193_5084">
<rect width="100" height="100" fill="white"/>
</clipPath>
</defs>
</svg>
