<svg width="100" height="100" viewBox="0 0 100 100" fill="none" xmlns="http://www.w3.org/2000/svg">
<g clip-path="url(#clip0_193_5089)">
<circle cx="50" cy="50" r="50" fill="#FFBC57"/>
<path fill-rule="evenodd" clip-rule="evenodd" d="M62.1246 43.6253C60.5387 44.0579 59.3746 45.5073 59.3746 47.2313V56.8398L57.2942 54.9905C56.8113 54.5613 56.4041 54.3333 55.9763 54.1983C55.5288 54.0569 54.9855 53.9938 54.1871 53.9938C50.7451 53.9938 47.6934 56.5016 47.6934 59.7C47.6934 60.3904 47.1337 60.95 46.4434 60.95C45.753 60.95 45.1934 60.3904 45.1934 59.7C45.1934 54.761 49.7541 51.4938 54.1871 51.4938C55.0949 51.4938 55.9298 51.5619 56.7291 51.8143C56.778 51.8297 56.8265 51.8458 56.8746 51.8624V47.2313C56.8746 43.7847 59.6655 40.9938 63.1121 40.9938H64.6246V59.3063C64.6246 62.2951 63.7722 65.1499 62.3346 67.45C61.9687 68.0354 61.1975 68.2134 60.6121 67.8475C60.0267 67.4816 59.8487 66.7104 60.2146 66.125C61.402 64.2252 62.1246 61.83 62.1246 59.3063V43.6253Z" fill="white"/>
<path fill-rule="evenodd" clip-rule="evenodd" d="M36.9941 51.625C37.6845 51.625 38.2441 52.1846 38.2441 52.875V61.4062C38.2441 63.0677 38.6002 64.5621 39.2728 65.7952C39.6033 66.4012 39.38 67.1605 38.774 67.4911C38.1679 67.8217 37.4086 67.5984 37.078 66.9923C36.1756 65.3379 35.7441 63.4198 35.7441 61.4062V52.875C35.7441 52.1846 36.3038 51.625 36.9941 51.625Z" fill="white"/>
<path fill-rule="evenodd" clip-rule="evenodd" d="M35.875 66.0625H64.625V71.25C64.625 71.9404 64.0654 72.5 63.375 72.5C62.6846 72.5 62.125 71.9404 62.125 71.25V68.5625H38.375V71.25C38.375 71.9404 37.8154 72.5 37.125 72.5C36.4346 72.5 35.875 71.9404 35.875 71.25V66.0625Z" fill="white"/>
<path fill-rule="evenodd" clip-rule="evenodd" d="M28 29.25C28 28.5596 28.5596 28 29.25 28H71.25C71.9404 28 72.5 28.5596 72.5 29.25V52.875C72.5 53.5654 71.9404 54.125 71.25 54.125H63.375C62.6846 54.125 62.125 53.5654 62.125 52.875C62.125 52.1846 62.6846 51.625 63.375 51.625H70V30.5H30.5V51.625H58.125C58.8154 51.625 59.375 52.1846 59.375 52.875C59.375 53.5654 58.8154 54.125 58.125 54.125H29.25C28.5596 54.125 28 53.5654 28 52.875V29.25Z" fill="white"/>
<path fill-rule="evenodd" clip-rule="evenodd" d="M49.5937 35.75C46.2973 35.75 43.625 38.4223 43.625 41.7188C43.625 45.0152 46.2973 47.6875 49.5937 47.6875C52.8902 47.6875 55.5625 45.0152 55.5625 41.7188C55.5625 38.4223 52.8902 35.75 49.5937 35.75ZM41.125 41.7188C41.125 37.0416 44.9166 33.25 49.5937 33.25C54.2709 33.25 58.0625 37.0416 58.0625 41.7188C58.0625 46.3959 54.2709 50.1875 49.5937 50.1875C44.9166 50.1875 41.125 46.3959 41.125 41.7188Z" fill="white"/>
<path fill-rule="evenodd" clip-rule="evenodd" d="M64.1621 30.4938C64.8525 30.4938 65.4121 31.0534 65.4121 31.7438C65.4121 33.4159 66.69 34.6938 68.3621 34.6938C69.0525 34.6938 69.6121 35.2534 69.6121 35.9438C69.6121 36.6341 69.0525 37.1938 68.3621 37.1938C65.3093 37.1938 62.9121 34.7966 62.9121 31.7438C62.9121 31.0534 63.4718 30.4938 64.1621 30.4938Z" fill="white"/>
<path fill-rule="evenodd" clip-rule="evenodd" d="M30.625 45.9188C30.625 45.2284 31.1846 44.6688 31.875 44.6688C34.8772 44.6688 37.4563 47.0163 37.4563 50.1188C37.4563 50.8091 36.8966 51.3688 36.2063 51.3688C35.5159 51.3688 34.9563 50.8091 34.9563 50.1188C34.9563 48.4962 33.5978 47.1688 31.875 47.1688C31.1846 47.1688 30.625 46.6091 30.625 45.9188Z" fill="white"/>
<path fill-rule="evenodd" clip-rule="evenodd" d="M36.075 30.625C36.7654 30.625 37.325 31.1846 37.325 31.875C37.325 34.8473 34.7448 37.1938 31.875 37.1938C31.1846 37.1938 30.625 36.6341 30.625 35.9438C30.625 35.2534 31.1846 34.6938 31.875 34.6938C33.4677 34.6938 34.825 33.3652 34.825 31.875C34.825 31.1846 35.3846 30.625 36.075 30.625Z" fill="white"/>
<path fill-rule="evenodd" clip-rule="evenodd" d="M62.7812 50.1188C62.7812 47.0163 65.3603 44.6688 68.3625 44.6688C69.0529 44.6688 69.6125 45.2284 69.6125 45.9188C69.6125 46.6091 69.0529 47.1688 68.3625 47.1688C66.6397 47.1688 65.2812 48.4962 65.2812 50.1188C65.2812 50.8091 64.7216 51.3688 64.0312 51.3688C63.3409 51.3688 62.7812 50.8091 62.7812 50.1188Z" fill="white"/>
</g>
<defs>
<clipPath id="clip0_193_5089">
<rect width="100" height="100" fill="white"/>
</clipPath>
</defs>
</svg>
