<svg width="100" height="100" viewBox="0 0 100 100" fill="none" xmlns="http://www.w3.org/2000/svg">
<g clip-path="url(#clip0_193_5251)">
<circle cx="50" cy="50" r="50" fill="#FFBC57"/>
<path d="M89.7692 42.9289L89.2009 41.5812L85.2665 39.2351L80.2757 39.2714L77.5505 36.0074L74.4105 37.2751L71.9111 36.3206L70.1772 36.9034L66.9203 31.2129L64.6105 31.0163L63.0514 24.9471L56.8145 24L55.5978 25.5591L50.3883 25.4935L48.7126 27.9345L48.5449 30.9726L46.9129 29.304L43.5831 29.8723L42.716 28.1748L36.6249 28.692L28.144 25.0711L23.3791 24.8086L19.8089 28.0071L21.2077 32.9471L14.0018 39.4317L14.512 42.98L13.1422 42.3898L11 45.3772L14.4972 49.756L21.1495 51.0237L22.592 52.6778L28.3262 51.3662L29.0329 49.9674L34.4828 48.6631L40.3043 52.1751L41.288 55.3298L43.1969 56.8163L43.0951 59.3225L44.6105 62.2225L41.2806 63.1551L40.0422 65.4575L36.676 68.4665L38.9492 70.5286L45.4631 66.9L48.6397 62.8419L50.4538 61.676L54.0095 61.1222L53.4775 62.4409L53.3098 62.696L55.3354 65.0785L61.6378 65.1077L61.9511 66.4994L56.5231 69.5302L61.3828 71.9492L61.4268 73.5523L60.5378 75.4683L62.2062 76.5612L65.0114 75.5557L71.1098 71.6142L74.9129 71.7889L75.4812 69.3698L73.3831 69.2317L70.352 70.4265L68.0425 67.6286L63.0508 64.4957L69.1643 64.0658L69.2298 64.1022L71.9988 61.3699L79.5034 58.0985L82.3738 57.8363L82.76 54.4483L85.6963 52.5683L88.9388 52.4591L89.7182 49.4428L88.312 45.4062L89.7692 42.9289Z" fill="white"/>
</g>
<defs>
<clipPath id="clip0_193_5251">
<rect width="100" height="100" fill="white"/>
</clipPath>
</defs>
</svg>
