<svg width="40" height="40" viewBox="0 0 40 40" fill="none" xmlns="http://www.w3.org/2000/svg">
<path d="M10.5111 16.6691C11.2897 16.6691 11.971 15.9878 11.971 15.2092C11.971 14.4307 11.2897 13.7494 10.5111 13.7494C9.73253 13.7494 9.05127 14.4307 9.05127 15.2092C9.05127 15.9878 9.73253 16.6691 10.5111 16.6691Z" fill="#2B2929"/>
<path d="M10.5111 25.3309C11.2897 25.3309 11.971 24.6496 11.971 23.871C11.971 23.0925 11.2897 22.4112 10.5111 22.4112C9.73253 22.4112 9.05127 23.0925 9.05127 23.871C9.05127 24.6496 9.73253 25.3309 10.5111 25.3309Z" fill="#2B2929"/>
<path d="M29.3915 16.6691C30.1701 16.6691 30.8513 15.9878 30.8513 15.2092C30.8513 14.4307 30.1701 13.7494 29.3915 13.7494C28.6129 13.7494 27.9316 14.4307 27.9316 15.2092C27.9316 15.9878 28.6129 16.6691 29.3915 16.6691Z" fill="#2B2929"/>
<path d="M39.9027 2.07056C39.9027 1.48662 39.4161 1 38.8321 1H1.07056C0.486618 1 0 1.48662 0 2.07056V10.7324V10.8297V28.3479C0 28.9319 0.486618 29.4185 1.07056 29.4185H7.0073L5.45012 38.4696C5.45012 38.7616 5.45012 39.0535 5.64477 39.2482C5.83942 39.4428 6.03406 39.6375 6.32603 39.6375H6.52068C7.0073 39.6375 7.49392 39.2482 7.59124 38.7616L9.14842 29.3212H30.8516L32.4088 38.7616C32.5061 39.2482 32.8954 39.6375 33.4793 39.6375H33.674C34.2579 39.5401 34.6472 38.9562 34.5499 38.4696L32.9927 29.4185H38.9294C39.5134 29.4185 40 28.9319 40 28.3479V10.927V10.8297L39.9027 2.07056ZM37.8589 20.6594V27.2774H21.0219V20.6594H37.8589ZM37.8589 11.9002V18.5182H21.0219V11.9002H37.8589ZM37.8589 3.0438V9.6618H21.0219V3.0438H37.8589ZM18.8808 20.6594V27.2774H2.0438V20.6594H18.8808ZM18.8808 11.9002V18.5182H2.0438V11.9002H18.8808ZM18.8808 3.0438V9.6618H2.0438V3.0438H18.8808Z" fill="#2B2929"/>
<path d="M10.5111 7.81265C11.2897 7.81265 11.971 7.13139 11.971 6.3528C11.971 5.57421 11.2897 4.89294 10.5111 4.89294C9.73253 4.89294 9.05127 5.57421 9.05127 6.3528C9.05127 7.13139 9.73253 7.81265 10.5111 7.81265Z" fill="#2B2929"/>
<path d="M29.3915 7.81268C30.1701 7.81268 30.8513 7.13141 30.8513 6.35283C30.8513 5.57424 30.1701 4.9903 29.3915 4.9903C28.6129 4.9903 27.9316 5.67156 27.9316 6.45015C27.9316 7.22874 28.6129 7.81268 29.3915 7.81268Z" fill="#2B2929"/>
<path d="M29.3915 25.3309C30.1701 25.3309 30.8513 24.6496 30.8513 23.871C30.8513 23.0925 30.1701 22.4112 29.3915 22.4112C28.6129 22.4112 27.9316 23.0925 27.9316 23.871C27.9316 24.6496 28.6129 25.3309 29.3915 25.3309Z" fill="#2B2929"/>
</svg>
