<svg width="40" height="40" viewBox="0 0 40 40" fill="none" xmlns="http://www.w3.org/2000/svg">
<path d="M20.317 40C21.0714 40 21.6829 39.3885 21.6829 38.6342C21.6829 37.8798 21.0714 37.2683 20.317 37.2683C19.5627 37.2683 18.9512 37.8798 18.9512 38.6342C18.9512 39.3885 19.5627 40 20.317 40Z" fill="#2B2929"/>
<path d="M29.0978 40C29.8521 40 30.4636 39.3885 30.4636 38.6342C30.4636 37.8798 29.8521 37.2683 29.0978 37.2683C28.3434 37.2683 27.7319 37.8798 27.7319 38.6342C27.7319 39.3885 28.3434 40 29.0978 40Z" fill="#2B2929"/>
<path d="M11.5368 40C12.2911 40 12.9026 39.3885 12.9026 38.6342C12.9026 37.8798 12.2911 37.2683 11.5368 37.2683C10.7824 37.2683 10.1709 37.8798 10.1709 38.6342C10.1709 39.3885 10.7824 40 11.5368 40Z" fill="#2B2929"/>
<path d="M28.8051 20.5854C29.8782 15.122 30.366 9.65854 30.366 4.19512C30.366 1.85366 28.5124 0 26.2685 0H14.5612C12.2197 0 10.2685 1.85366 10.2685 4.19512C10.2685 9.65854 10.8538 15.122 11.8294 20.5854C10.5612 21.0732 9.68311 22.3415 9.68311 23.7073V25.3659C9.68311 26.6341 10.6587 27.6098 11.927 27.6098H19.2441V31.7073C16.1221 31.9024 13.1953 32.878 10.9514 34.439C10.7563 34.6341 10.5612 34.8293 10.5612 35.122C10.5612 35.4146 10.5612 35.7073 10.7563 35.9024C11.049 36.3902 11.7319 36.4878 12.2197 36.1951C14.1709 34.8293 16.7075 33.9512 19.3416 33.7561V35.3171C19.3416 35.9024 19.8294 36.2927 20.3173 36.2927C20.8051 36.2927 21.2929 35.8049 21.2929 35.3171V33.7561C23.927 33.9512 26.4636 34.7317 28.4148 36.1951C28.6099 36.2927 28.8051 36.3902 29.0002 36.3902C29.2929 36.3902 29.6831 36.1951 29.8782 36C30.0733 35.8049 30.0734 35.5122 30.0734 35.2195C30.0734 34.9268 29.8782 34.7317 29.6831 34.5366C27.3416 32.8781 24.4148 31.9024 21.3904 31.8049V27.7073H28.7075C29.9758 27.7073 30.9514 26.7317 30.9514 25.4634V23.8049C30.9514 22.3415 30.0733 21.0732 28.8051 20.5854ZM13.1953 22.3415H27.5368C28.3173 22.3415 28.9026 22.9268 28.9026 23.7073V25.3659C28.9026 25.4634 28.8051 25.561 28.7075 25.561H12.0246C11.927 25.561 11.8294 25.4634 11.8294 25.3659V23.7073C11.8294 22.9268 12.4148 22.3415 13.1953 22.3415ZM26.8538 20.2927H13.8782C12.9026 15.0244 12.3173 9.56098 12.3173 4.19512C12.3173 3.02439 13.2929 2.04878 14.4636 2.04878H26.1709C27.3416 2.04878 28.3172 3.02439 28.3172 4.19512C28.3172 9.56098 27.8294 14.9268 26.8538 20.2927Z" fill="#2B2929"/>
<path d="M10.7561 17.3659V14.7317C10.7561 13.8537 9.97561 13.0732 9.09756 13.0732H6.65854C5.78049 13.0732 5 13.8537 5 14.7317V17.3659C5 18.9268 6.26829 20.2927 7.92683 20.2927C9.4878 20.2927 10.7561 18.9268 10.7561 17.3659ZM8.70732 15.122V17.4634C8.70732 17.9512 8.31707 18.3415 7.82927 18.3415C7.34146 18.3415 6.95122 17.9512 6.95122 17.4634V15.122H8.70732Z" fill="#2B2929"/>
<path d="M33.9755 13.0732H31.5365C30.6584 13.0732 29.8779 13.8537 29.8779 14.7317V17.3659C29.8779 18.9268 31.1462 20.2927 32.8048 20.2927C34.3657 20.2927 35.7316 19.0244 35.7316 17.3659V14.7317C35.7316 13.7561 34.9511 13.0732 33.9755 13.0732ZM33.6828 15.122V17.4634C33.6828 17.9512 33.2926 18.3415 32.8048 18.3415C32.317 18.3415 31.9267 17.9512 31.9267 17.4634V15.122H33.6828Z" fill="#2B2929"/>
<path d="M20.3169 7.51221C19.7316 7.51221 19.3413 8.00001 19.3413 8.48782V17.6585C19.3413 18.2439 19.8291 18.6342 20.3169 18.6342C20.8047 18.6342 21.2925 18.1464 21.2925 17.6585V8.58538C21.3901 8.00001 20.9023 7.51221 20.3169 7.51221Z" fill="#2B2929"/>
</svg>
