<svg width="40" height="40" viewBox="0 0 40 40" fill="none" xmlns="http://www.w3.org/2000/svg">
<path d="M14.6098 26.0488H7.39028C6.31711 26.0488 5.53662 26.9269 5.53662 27.9025V32.0976C5.53662 33.1708 6.41467 33.9513 7.39028 33.9513H14.6098C15.683 33.9513 16.4635 33.0732 16.4635 32.0976V27.9025C16.561 26.8293 15.683 26.0488 14.6098 26.0488ZM14.7074 32.0976H7.39028V27.9025H14.7074V32.0976Z" fill="#2B2929"/>
<path d="M35.878 20.878H29.9268L30.3171 20.4878C30.6098 20.0975 30.6098 19.5122 30.2195 19.1219C29.8293 18.8293 29.2439 18.8293 28.8537 19.2195L27.878 20.2927V16.5854C27.878 16.0975 27.4878 15.6097 26.9024 15.6097C26.4146 15.6097 25.9268 16 25.9268 16.5854V20.2927L24.9512 19.2195C24.7561 19.0244 24.561 18.9268 24.2683 18.9268C23.9756 18.9268 23.7805 19.0244 23.5854 19.1219C23.1951 19.5122 23.1951 20.0975 23.4878 20.4878L23.7805 20.878H3.97561C3.4878 20.878 3 21.2683 3 21.8536V39.0244C3 39.5122 3.39024 40 3.97561 40H35.9756C36.4634 40 36.9512 39.6097 36.9512 39.0244V21.7561C36.8537 21.2683 36.4634 20.878 35.878 20.878ZM26.122 22.7317V38.1463H19.0976V22.7317H26.122ZM27.9756 38.1463V22.7317H35V38.1463H27.9756ZM4.85366 38.1463V22.7317H17.1463V38.1463H4.85366Z" fill="#2B2929"/>
<path d="M35.8783 0H18.1222C17.6344 0 17.1466 0.390244 17.1466 0.97561V5.85366C16.9514 5.65854 16.7563 5.56098 16.4636 5.56098H13.927V0.97561C13.927 0.487805 13.5368 0 12.9514 0H9.04899C8.56119 0 8.07338 0.390244 8.07338 0.97561V5.56098H5.5368C5.14656 5.56098 4.75631 5.85366 4.65875 6.14634L3.09777 10.7317C3.00021 10.9268 3.00021 11.3171 3.19534 11.5122C3.39046 11.8049 3.68314 11.9024 3.97582 11.9024H35.9758C36.4636 11.9024 36.9514 11.5122 36.9514 10.9268V0.97561C36.8539 0.390244 36.4636 0 35.8783 0ZM19.0002 10.0488V1.85366H26.0246V10.0488H19.0002ZM27.9758 10.0488V1.85366H35.0002V10.0488H27.9758ZM10.0246 6.43902V1.85366H12.0734V6.43902C12.0734 6.92683 12.4636 7.41463 13.049 7.41463H15.8783L16.8539 10.0488H5.24412L6.21973 7.41463H9.04899C9.5368 7.41463 10.0246 7.02439 10.0246 6.43902Z" fill="#2B2929"/>
<path d="M15.3904 23.2195C14.7074 23.2195 14.1221 23.8048 14.1221 24.4878C14.1221 25.1707 14.7074 25.7561 15.3904 25.7561C16.0733 25.7561 16.6587 25.1707 16.6587 24.4878C16.5611 23.8048 16.0733 23.2195 15.3904 23.2195Z" fill="#2B2929"/>
<path d="M24.4636 25.6585C25.1465 25.6585 25.7319 25.0732 25.7319 24.3902C25.7319 23.7073 25.1465 23.1219 24.4636 23.1219C23.7807 23.1219 23.1953 23.7073 23.1953 24.3902C23.1953 25.1707 23.7807 25.6585 24.4636 25.6585Z" fill="#2B2929"/>
<path d="M29.634 23.2195C28.9511 23.2195 28.3657 23.8048 28.3657 24.4878C28.3657 25.1707 28.9511 25.7561 29.634 25.7561C30.3169 25.7561 30.9023 25.1707 30.9023 24.4878C30.8047 23.8048 30.3169 23.2195 29.634 23.2195Z" fill="#2B2929"/>
<path d="M24.4636 6.92676C23.7807 6.92676 23.1953 7.51212 23.1953 8.19505C23.1953 8.87798 23.7807 9.46334 24.4636 9.46334C25.1465 9.46334 25.7319 8.87798 25.7319 8.19505C25.6343 7.51212 25.1465 6.92676 24.4636 6.92676Z" fill="#2B2929"/>
<path d="M29.634 6.92676C28.9511 6.92676 28.3657 7.51212 28.3657 8.19505C28.3657 8.87798 28.9511 9.46334 29.634 9.46334C30.3169 9.46334 30.9023 8.87798 30.9023 8.19505C30.8047 7.51212 30.3169 6.92676 29.634 6.92676Z" fill="#2B2929"/>
<path d="M12.4636 25.6585C13.1465 25.6585 13.7319 25.0732 13.7319 24.3902C13.7319 23.7073 13.1465 23.1219 12.4636 23.1219C11.7807 23.1219 11.1953 23.7073 11.1953 24.3902C11.1953 25.1707 11.7807 25.6585 12.4636 25.6585Z" fill="#2B2929"/>
<path d="M9.53685 25.6585C10.2198 25.6585 10.8051 25.0732 10.8051 24.3902C10.8051 23.7073 10.2198 23.1219 9.53685 23.1219C8.85392 23.1219 8.26855 23.7073 8.26855 24.3902C8.36612 25.1707 8.85392 25.6585 9.53685 25.6585Z" fill="#2B2929"/>
<path d="M6.70726 25.6585C7.39018 25.6585 7.97555 25.0732 7.97555 24.3902C7.97555 23.7073 7.39018 23.1219 6.70726 23.1219C6.02433 23.1219 5.43896 23.7073 5.43896 24.3902C5.43896 25.1707 6.02433 25.6585 6.70726 25.6585Z" fill="#2B2929"/>
</svg>
