<svg width="24" height="24" viewBox="0 0 24 24" fill="none" xmlns="http://www.w3.org/2000/svg">
<path d="M20.9997 3.47516H15.877C15.3247 3.47516 14.877 3.92287 14.877 4.47516V9.59793C14.877 10.1502 15.3247 10.5979 15.877 10.5979H20.9997C21.552 10.5979 21.9997 10.1502 21.9997 9.59793V4.47516C21.9997 3.92287 21.552 3.47516 20.9997 3.47516Z" fill="white"/>
<path d="M11.3661 6.32945L7.74373 2.70711C7.3532 2.31658 6.72004 2.31658 6.32951 2.70711L2.70717 6.32945C2.31665 6.71998 2.31665 7.35314 2.70717 7.74366L6.32951 11.366C6.72004 11.7565 7.3532 11.7565 7.74373 11.366L11.3661 7.74366C11.7566 7.35314 11.7566 6.71998 11.3661 6.32945Z" fill="white"/>
<path d="M9.59787 14.8772H4.4751C3.92281 14.8772 3.4751 15.3249 3.4751 15.8772V21C3.4751 21.5523 3.92281 22 4.4751 22H9.59787C10.1502 22 10.5979 21.5523 10.5979 21V15.8772C10.5979 15.3249 10.1502 14.8772 9.59787 14.8772Z" fill="white"/>
<path d="M20.9997 14.8772H15.877C15.3247 14.8772 14.877 15.3249 14.877 15.8772V21C14.877 21.5523 15.3247 22 15.877 22H20.9997C21.552 22 21.9997 21.5523 21.9997 21V15.8772C21.9997 15.3249 21.552 14.8772 20.9997 14.8772Z" fill="white"/>
</svg>
