<svg width="24" height="24" viewBox="0 0 24 24" fill="none" xmlns="http://www.w3.org/2000/svg">
<path d="M12.7101 14.83L16.9501 10.59C17.0438 10.497 17.1182 10.3864 17.1689 10.2646C17.2197 10.1427 17.2458 10.012 17.2458 9.88C17.2458 9.74799 17.2197 9.61728 17.1689 9.49542C17.1182 9.37356 17.0438 9.26296 16.9501 9.17C16.7627 8.98375 16.5092 8.87921 16.2451 8.87921C15.9809 8.87921 15.7274 8.98375 15.5401 9.17L12.0001 12.71L8.46005 9.17C8.27269 8.98375 8.01924 8.87921 7.75505 8.87921C7.49086 8.87921 7.23741 8.98375 7.05005 9.17C6.95737 9.26344 6.88404 9.37426 6.83428 9.49609C6.78452 9.61793 6.75929 9.74839 6.76005 9.88C6.75929 10.0116 6.78452 10.1421 6.83428 10.2639C6.88404 10.3857 6.95737 10.4966 7.05005 10.59L11.2901 14.83C11.383 14.9237 11.4936 14.9981 11.6155 15.0489C11.7373 15.0997 11.868 15.1258 12.0001 15.1258C12.1321 15.1258 12.2628 15.0997 12.3846 15.0489C12.5065 14.9981 12.6171 14.9237 12.7101 14.83Z" fill="#535353"/>
</svg>
