<svg width="50" height="50" viewBox="0 0 50 50" fill="none" xmlns="http://www.w3.org/2000/svg">
<g clip-path="url(#clip0_76_4376)">
<circle cx="25" cy="25" r="24" stroke="#FFBC57" stroke-width="2"/>
<path d="M29.9338 19.8393C29.8432 19.6212 29.6698 19.4478 29.4517 19.3572C29.3443 19.3114 29.229 19.2872 29.1124 19.2858H20.1838C19.947 19.2858 19.7199 19.3798 19.5525 19.5473C19.385 19.7147 19.2909 19.9418 19.2909 20.1786C19.2909 20.4154 19.385 20.6425 19.5525 20.81C19.7199 20.9774 19.947 21.0715 20.1838 21.0715H26.9606L19.5499 28.4733C19.4662 28.5563 19.3998 28.655 19.3544 28.7638C19.3091 28.8726 19.2858 28.9893 19.2858 29.1072C19.2858 29.2251 19.3091 29.3418 19.3544 29.4506C19.3998 29.5594 19.4662 29.6581 19.5499 29.7411C19.6329 29.8248 19.7316 29.8912 19.8404 29.9366C19.9492 29.9819 20.0659 30.0052 20.1838 30.0052C20.3017 30.0052 20.4184 29.9819 20.5272 29.9366C20.636 29.8912 20.7347 29.8248 20.8177 29.7411L28.2195 22.3304V29.1072C28.2195 29.344 28.3136 29.5711 28.481 29.7385C28.6485 29.906 28.8756 30.0001 29.1124 30.0001C29.3492 30.0001 29.5763 29.906 29.7437 29.7385C29.9112 29.5711 30.0052 29.344 30.0052 29.1072V20.1786C30.0038 20.0619 29.9796 19.9467 29.9338 19.8393Z" fill="#FFBC57"/>
</g>
<defs>
<clipPath id="clip0_76_4376">
<rect width="50" height="50" fill="white"/>
</clipPath>
</defs>
</svg>
