<svg width="60" height="60" viewBox="0 0 60 60" fill="none" xmlns="http://www.w3.org/2000/svg">
<g clip-path="url(#clip0_79_559)">
<circle cx="30" cy="30" r="30" fill="white"/>
<path d="M37.0293 28.897L28.56 20.4426C28.4209 20.3024 28.2554 20.191 28.073 20.1151C27.8907 20.0391 27.6951 20 27.4975 20C27.3 20 27.1044 20.0391 26.9221 20.1151C26.7397 20.191 26.5742 20.3024 26.4351 20.4426C26.1564 20.723 26 21.1022 26 21.4976C26 21.8929 26.1564 22.2721 26.4351 22.5525L33.8421 30.0343L26.4351 37.4412C26.1564 37.7216 26 38.1008 26 38.4962C26 38.8915 26.1564 39.2707 26.4351 39.5511C26.5737 39.6925 26.739 39.805 26.9213 39.882C27.1037 39.9591 27.2996 39.9992 27.4975 40C27.6955 39.9992 27.8914 39.9591 28.0737 39.882C28.2561 39.805 28.4214 39.6925 28.56 39.5511L37.0293 31.0967C37.1812 30.9566 37.3024 30.7865 37.3853 30.5972C37.4683 30.4079 37.5111 30.2035 37.5111 29.9969C37.5111 29.7902 37.4683 29.5858 37.3853 29.3965C37.3024 29.2072 37.1812 29.0372 37.0293 28.897Z" fill="#FFBC57"/>
</g>
<defs>
<clipPath id="clip0_79_559">
<rect width="60" height="60" fill="white"/>
</clipPath>
</defs>
</svg>
