<svg width="60" height="60" viewBox="0 0 60 60" fill="none" xmlns="http://www.w3.org/2000/svg">
<g clip-path="url(#clip0_79_562)">
<circle cx="30" cy="30" r="30" transform="matrix(-1 0 0 1 60 0)" fill="white"/>
<path d="M22.9707 28.897L31.44 20.4426C31.5791 20.3024 31.7446 20.191 31.927 20.1151C32.1093 20.0391 32.3049 20 32.5025 20C32.7 20 32.8956 20.0391 33.0779 20.1151C33.2603 20.191 33.4258 20.3024 33.5649 20.4426C33.8436 20.723 34 21.1022 34 21.4976C34 21.8929 33.8436 22.2721 33.5649 22.5525L26.1579 30.0343L33.5649 37.4412C33.8436 37.7216 34 38.1008 34 38.4962C34 38.8915 33.8436 39.2707 33.5649 39.5511C33.4263 39.6925 33.261 39.805 33.0787 39.882C32.8963 39.9591 32.7004 39.9992 32.5025 40C32.3045 39.9992 32.1086 39.9591 31.9263 39.882C31.7439 39.805 31.5786 39.6925 31.44 39.5511L22.9707 31.0967C22.8188 30.9566 22.6976 30.7865 22.6147 30.5972C22.5317 30.4079 22.4889 30.2035 22.4889 29.9969C22.4889 29.7902 22.5317 29.5858 22.6147 29.3965C22.6976 29.2072 22.8188 29.0372 22.9707 28.897Z" fill="#FFBC57"/>
</g>
<defs>
<clipPath id="clip0_79_562">
<rect width="60" height="60" fill="white" transform="matrix(-1 0 0 1 60 0)"/>
</clipPath>
</defs>
</svg>
