<svg width="50" height="50" viewBox="0 0 50 50" fill="none" xmlns="http://www.w3.org/2000/svg">
<g clip-path="url(#clip0_42_193)">
<circle cx="25" cy="25" r="25" fill="#F8F8F8"/>
<path d="M33.0918 26.6961C32.8379 26.6961 32.5724 26.6153 32.3185 26.5576C31.8047 26.4427 31.2995 26.2923 30.8065 26.1074C30.2711 25.9126 29.6825 25.9228 29.1541 26.1358C28.6256 26.3489 28.1947 26.7499 27.9441 27.2616L27.6902 27.7925C26.5693 27.1568 25.5337 26.3811 24.6085 25.4842C23.7115 24.5589 22.9359 23.5234 22.3001 22.4025L22.8311 22.1601C23.3428 21.9096 23.7438 21.4786 23.9568 20.9502C24.1699 20.4217 24.18 19.8332 23.9852 19.2977C23.8019 18.8003 23.6516 18.2914 23.5351 17.7742C23.4774 17.5203 23.4312 17.2548 23.3966 17.0009C23.2564 16.1879 22.8306 15.4517 22.1958 14.9248C21.561 14.3979 20.7589 14.115 19.934 14.127H16.4599C15.972 14.1263 15.4894 14.2288 15.0439 14.4277C14.5983 14.6266 14.1999 14.9175 13.8746 15.2811C13.5425 15.6547 13.2953 16.0957 13.1499 16.5739C13.0044 17.052 12.9642 17.556 13.032 18.0512C13.6594 22.8551 15.8542 27.3178 19.2762 30.7473C22.7057 34.1692 27.1683 36.364 31.9722 36.9914C32.122 37.0029 32.2725 37.0029 32.4224 36.9914C33.2735 36.9927 34.0952 36.6804 34.7307 36.1142C35.0944 35.7889 35.3852 35.3905 35.5842 34.9449C35.7831 34.4994 35.8856 34.0168 35.8849 33.5289V30.0663C35.8787 29.2688 35.5974 28.4979 35.0885 27.8838C34.5795 27.2698 33.8743 26.8502 33.0918 26.6961ZM33.6573 33.6212C33.657 33.7822 33.6229 33.9414 33.5573 34.0885C33.4917 34.2356 33.396 34.3674 33.2765 34.4753C33.15 34.5905 32.9994 34.6762 32.8357 34.7261C32.672 34.776 32.4993 34.7889 32.33 34.7638C28.0229 34.2013 24.0202 32.2385 20.9382 29.1776C17.8536 26.093 15.8737 22.0763 15.3058 17.7511C15.2807 17.5818 15.2936 17.4091 15.3435 17.2454C15.3934 17.0817 15.4791 16.9312 15.5943 16.8047C15.7035 16.6837 15.8371 16.5872 15.9863 16.5215C16.1355 16.4559 16.2969 16.4226 16.4599 16.4238H19.9225C20.1893 16.4173 20.4501 16.5034 20.6606 16.6676C20.871 16.8317 21.0181 17.0637 21.0767 17.3241C21.0767 17.6357 21.1806 17.9589 21.2498 18.2705C21.3832 18.8751 21.5607 19.4692 21.7807 20.0479L20.1649 20.8097C19.8871 20.9372 19.6713 21.1696 19.5647 21.4561C19.4493 21.7371 19.4493 22.0522 19.5647 22.3332C21.2258 25.8913 24.0859 28.7514 27.644 30.4125C27.925 30.528 28.2402 30.528 28.5212 30.4125C28.8076 30.3059 29.0401 30.0901 29.1675 29.8124L29.8947 28.1965C30.4901 28.4136 31.0993 28.591 31.7183 28.7274C32.0184 28.7967 32.3416 28.8544 32.6532 28.9006C32.9136 28.9592 33.1456 29.1062 33.3097 29.3167C33.4738 29.5271 33.56 29.7879 33.5535 30.0547L33.6573 33.6212ZM26.8476 14C26.5822 14 26.3052 14 26.0397 14C25.7336 14.026 25.4504 14.1726 25.2523 14.4074C25.0542 14.6423 24.9576 14.9462 24.9836 15.2523C25.0096 15.5584 25.1562 15.8416 25.391 16.0397C25.6259 16.2377 25.9298 16.3344 26.2359 16.3084H26.8476C28.6843 16.3084 30.4457 17.038 31.7444 18.3367C33.0431 19.6354 33.7728 21.3968 33.7728 23.2335C33.7728 23.4413 33.7728 23.6375 33.7728 23.8452C33.7472 24.1497 33.8434 24.4519 34.0402 24.6856C34.2371 24.9193 34.5187 25.0653 34.8231 25.0917H34.9154C35.2043 25.0929 35.4832 24.9857 35.6969 24.7912C35.9106 24.5967 36.0436 24.3292 36.0696 24.0414C36.0696 23.776 36.0696 23.499 36.0696 23.2335C36.0696 20.7866 35.0984 18.4398 33.3692 16.7085C31.6401 14.9772 29.2945 14.0031 26.8476 14ZM29.156 23.2335C29.156 23.5396 29.2776 23.8332 29.4941 24.0496C29.7105 24.2661 30.0041 24.3877 30.3102 24.3877C30.6163 24.3877 30.9099 24.2661 31.1263 24.0496C31.3428 23.8332 31.4644 23.5396 31.4644 23.2335C31.4644 22.0091 30.978 20.8348 30.1122 19.969C29.2464 19.1032 28.0721 18.6168 26.8476 18.6168C26.5415 18.6168 26.2479 18.7384 26.0315 18.9548C25.815 19.1713 25.6934 19.4648 25.6934 19.7709C25.6934 20.077 25.815 20.3706 26.0315 20.5871C26.2479 20.8035 26.5415 20.9251 26.8476 20.9251C27.4598 20.9251 28.047 21.1683 28.4799 21.6012C28.9128 22.0341 29.156 22.6213 29.156 23.2335Z" fill="#535353"/>
</g>
<defs>
<clipPath id="clip0_42_193">
<rect width="50" height="50" fill="white"/>
</clipPath>
</defs>
</svg>
