<svg width="50" height="50" viewBox="0 0 50 50" fill="none" xmlns="http://www.w3.org/2000/svg">
<g clip-path="url(#clip0_42_104)">
<circle cx="25" cy="25" r="24" stroke="#FFBC57" stroke-width="2"/>
<path d="M27.9969 33.0163C28.3296 33.0163 28.6487 32.885 28.884 32.6514C29.1192 32.4177 29.2514 32.1008 29.2514 31.7704V29.2786C29.2514 28.9481 29.1192 28.6312 28.884 28.3976C28.6487 28.1639 28.3296 28.0327 27.9969 28.0327C27.6642 28.0327 27.3451 28.1639 27.1098 28.3976C26.8746 28.6312 26.7424 28.9481 26.7424 29.2786V31.7704C26.7424 32.1008 26.8746 32.4177 27.1098 32.6514C27.3451 32.885 27.6642 33.0163 27.9969 33.0163ZM22.9789 33.0163C23.3116 33.0163 23.6307 32.885 23.8659 32.6514C24.1012 32.4177 24.2334 32.1008 24.2334 31.7704V29.2786C24.2334 28.9481 24.1012 28.6312 23.8659 28.3976C23.6307 28.1639 23.3116 28.0327 22.9789 28.0327C22.6461 28.0327 22.3271 28.1639 22.0918 28.3976C21.8565 28.6312 21.7243 28.9481 21.7243 29.2786V31.7704C21.7243 32.1008 21.8565 32.4177 22.0918 32.6514C22.3271 32.885 22.6461 33.0163 22.9789 33.0163ZM34.2695 18.0654H32.5382L30.3679 13.767C30.3016 13.6088 30.2032 13.4659 30.0787 13.3472C29.9543 13.2286 29.8066 13.1367 29.6447 13.0773C29.4829 13.0179 29.3105 12.9923 29.1383 13.002C28.9661 13.0118 28.7977 13.0567 28.6438 13.134C28.4898 13.2114 28.3536 13.3194 28.2435 13.4513C28.1335 13.5833 28.0521 13.7364 28.0043 13.901C27.9566 14.0656 27.9435 14.2383 27.966 14.4082C27.9885 14.578 28.046 14.7415 28.1349 14.8883L29.7281 18.0654H21.2476L22.8409 14.8883C22.9626 14.5979 22.9693 14.2725 22.8595 13.9774C22.7496 13.6823 22.5315 13.4394 22.2488 13.2975C21.9661 13.1555 21.6398 13.125 21.3355 13.2121C21.0311 13.2992 20.7711 13.4974 20.6078 13.767L18.4375 18.0654H16.7063C15.8196 18.0787 14.9661 18.4027 14.2965 18.98C13.6268 19.5574 13.1839 20.351 13.0459 21.221C12.9079 22.091 13.0836 22.9815 13.5422 23.7353C14.0007 24.4892 14.7125 25.058 15.5522 25.3415L16.4805 34.636C16.5741 35.5612 17.0116 36.4185 17.7075 37.0405C18.4034 37.6625 19.3078 38.0046 20.244 38H30.7568C31.6931 38.0046 32.5974 37.6625 33.2934 37.0405C33.9893 36.4185 34.4267 35.5612 34.5204 34.636L35.4487 25.3415C36.2901 25.0572 37.0031 24.4862 37.4613 23.7299C37.9195 22.9735 38.0934 22.0805 37.9522 21.209C37.8109 20.3375 37.3637 19.5437 36.6896 18.9684C36.0156 18.393 35.1582 18.0731 34.2695 18.0654ZM31.9988 34.3868C31.9676 34.6952 31.8218 34.981 31.5898 35.1883C31.3578 35.3957 31.0564 35.5097 30.7443 35.5081H20.2315C19.9194 35.5097 19.6179 35.3957 19.386 35.1883C19.154 34.981 19.0082 34.6952 18.977 34.3868L18.0863 25.5408H32.8895L31.9988 34.3868ZM34.2695 23.049H16.7063C16.3736 23.049 16.0545 22.9177 15.8192 22.6841C15.584 22.4504 15.4518 22.1335 15.4518 21.8031C15.4518 21.4727 15.584 21.1558 15.8192 20.9221C16.0545 20.6884 16.3736 20.5572 16.7063 20.5572H34.2695C34.6022 20.5572 34.9213 20.6884 35.1565 20.9221C35.3918 21.1558 35.524 21.4727 35.524 21.8031C35.524 22.1335 35.3918 22.4504 35.1565 22.6841C34.9213 22.9177 34.6022 23.049 34.2695 23.049Z" fill="#535353"/>
</g>
<defs>
<clipPath id="clip0_42_104">
<rect width="50" height="50" fill="white"/>
</clipPath>
</defs>
</svg>
