<svg width="50" height="50" viewBox="0 0 50 50" fill="none" xmlns="http://www.w3.org/2000/svg">
<g clip-path="url(#clip0_42_110)">
<circle cx="25" cy="25" r="24" stroke="#FFBC57" stroke-width="2"/>
<path d="M35.5632 16.4365C34.1886 15.0584 32.3666 14.2173 30.4262 14.0651C28.4857 13.913 26.5549 14.4597 24.9823 15.6067C23.3325 14.3795 21.279 13.8231 19.2353 14.0494C17.1917 14.2757 15.3097 15.268 13.9683 16.8263C12.6269 18.3847 11.9259 20.3934 12.0062 22.4479C12.0866 24.5025 12.9424 26.4503 14.4014 27.8991L22.4538 35.9645C23.1281 36.6281 24.0362 37 24.9823 37C25.9284 37 26.8365 36.6281 27.5108 35.9645L35.5632 27.8991C37.0771 26.3759 37.9269 24.3155 37.9269 22.1678C37.9269 20.0202 37.0771 17.9598 35.5632 16.4365ZM33.7348 26.1097L25.6825 34.1621C25.5909 34.2546 25.4818 34.3281 25.3616 34.3782C25.2414 34.4283 25.1125 34.4541 24.9823 34.4541C24.8521 34.4541 24.7232 34.4283 24.603 34.3782C24.4828 34.3281 24.3737 34.2546 24.2821 34.1621L16.2297 26.0708C15.2128 25.0313 14.6434 23.635 14.6434 22.1808C14.6434 20.7266 15.2128 19.3303 16.2297 18.2908C17.266 17.2677 18.6636 16.694 20.1198 16.694C21.576 16.694 22.9735 17.2677 24.0098 18.2908C24.1303 18.4123 24.2737 18.5088 24.4318 18.5746C24.5898 18.6405 24.7593 18.6743 24.9304 18.6743C25.1016 18.6743 25.2711 18.6405 25.4291 18.5746C25.5871 18.5088 25.7305 18.4123 25.8511 18.2908C26.8873 17.2677 28.2849 16.694 29.7411 16.694C31.1973 16.694 32.5949 17.2677 33.6311 18.2908C34.662 19.3167 35.2501 20.7054 35.2695 22.1597C35.2889 23.6139 34.738 25.0178 33.7348 26.0708V26.1097Z" fill="#535353"/>
</g>
<defs>
<clipPath id="clip0_42_110">
<rect width="50" height="50" fill="white"/>
</clipPath>
</defs>
</svg>
