<svg width="24" height="24" viewBox="0 0 24 24" fill="none" xmlns="http://www.w3.org/2000/svg">
<g clip-path="url(#clip0_42_196)">
<path d="M22.6771 22.061L18.4131 17.8283C20.0682 15.763 20.8698 13.1416 20.6529 10.5031C20.436 7.86457 19.2172 5.40946 17.2471 3.64261C15.277 1.87576 12.7054 0.931461 10.0609 1.00388C7.41647 1.07629 4.90025 2.15992 3.02965 4.03195C1.15904 5.90398 0.0762357 8.42211 0.0038743 11.0686C-0.0684871 13.715 0.875097 16.2886 2.64061 18.2602C4.40612 20.2318 6.85935 21.4515 9.49588 21.6686C12.1324 21.8856 14.7518 21.0835 16.8155 19.4271L21.045 23.6598C21.1519 23.7676 21.279 23.8531 21.419 23.9115C21.5591 23.9699 21.7093 24 21.861 24C22.0128 24 22.163 23.9699 22.303 23.9115C22.4431 23.8531 22.5702 23.7676 22.6771 23.6598C22.8842 23.4453 23 23.1587 23 22.8604C23 22.5621 22.8842 22.2755 22.6771 22.061ZM10.3679 19.4271C8.77668 19.4271 7.22122 18.9549 5.89819 18.0702C4.57516 17.1855 3.54398 15.928 2.93506 14.4569C2.32614 12.9857 2.16681 11.3668 2.47724 9.80501C2.78767 8.24321 3.5539 6.8086 4.67904 5.6826C5.80419 4.5566 7.23771 3.78979 8.79833 3.47912C10.3589 3.16846 11.9766 3.3279 13.4466 3.93729C14.9167 4.54668 16.1732 5.57864 17.0572 6.90267C17.9412 8.2267 18.4131 9.78335 18.4131 11.3757C18.4131 13.5111 17.5655 15.559 16.0567 17.0689C14.5479 18.5788 12.5016 19.4271 10.3679 19.4271Z" fill="#535353"/>
</g>
<defs>
<clipPath id="clip0_42_196">
<rect width="24" height="24" fill="white"/>
</clipPath>
</defs>
</svg>
