<svg width="30" height="30" viewBox="0 0 30 30" fill="none" xmlns="http://www.w3.org/2000/svg">
<g clip-path="url(#clip0_47_282)">
<path d="M15 30C23.2843 30 30 23.2843 30 15C30 6.71573 23.2843 0 15 0C6.71573 0 0 6.71573 0 15C0 23.2843 6.71573 30 15 30Z" fill="#6F3FAA"/>
<path d="M22.9351 10.5424L22.9302 10.5226C22.5294 8.90232 20.7225 7.16373 19.0631 6.80203L19.0445 6.79816C16.3605 6.28617 13.6391 6.28617 10.9558 6.79816L10.9365 6.80203C9.2777 7.16373 7.47072 8.90244 7.06941 10.5226L7.06496 10.5424C6.56949 12.8051 6.56949 15.0999 7.06496 17.3626L7.06941 17.3824C7.45367 18.9335 9.126 20.5923 10.7234 21.0485V22.8571C10.7234 23.5118 11.5212 23.8333 11.9748 23.3609L13.8073 21.456C14.2048 21.4782 14.6025 21.4907 15.0001 21.4907C16.3511 21.4907 17.7027 21.3629 19.0444 21.1069L19.0631 21.1031C20.7225 20.7414 22.5294 19.0027 22.9302 17.3825L22.9351 17.3627C23.4305 15.0999 23.4305 12.8053 22.9351 10.5424ZM21.4849 17.0345C21.2173 18.0916 19.8454 19.4058 18.7553 19.6486C17.3282 19.92 15.8898 20.036 14.4529 19.9962C14.4243 19.9954 14.3968 20.0065 14.3769 20.027C14.173 20.2363 13.0389 21.4005 13.0389 21.4005L11.6158 22.8612C11.5118 22.9697 11.3289 22.8958 11.3289 22.7461V19.7498C11.3289 19.7003 11.2936 19.6583 11.245 19.6487C11.2447 19.6486 11.2445 19.6486 11.2442 19.6485C10.1541 19.4057 8.78264 18.0916 8.51457 17.0345C8.06861 14.9892 8.06861 12.9158 8.51457 10.8705C8.78264 9.81346 10.1541 8.49932 11.2442 8.2565C13.7365 7.78248 16.2635 7.78248 18.7554 8.2565C19.846 8.49932 21.2173 9.81346 21.4849 10.8705C21.9314 12.9159 21.9314 14.9893 21.4849 17.0345Z" fill="white"/>
<path d="M17.3714 18.4176C17.2038 18.3667 17.0441 18.3325 16.8957 18.2711C15.3587 17.6334 13.9443 16.8107 12.8239 15.5497C12.1868 14.8327 11.6881 14.0231 11.2666 13.1663C11.0666 12.76 10.8982 12.3379 10.7264 11.9183C10.5699 11.5358 10.8005 11.1407 11.0433 10.8524C11.2712 10.5819 11.5645 10.3749 11.882 10.2223C12.1299 10.1032 12.3743 10.1719 12.5554 10.3819C12.9467 10.8362 13.3062 11.3136 13.5972 11.8401C13.7762 12.1639 13.7271 12.5598 13.4027 12.7802C13.3238 12.8337 13.252 12.8967 13.1785 12.9571C13.1141 13.0102 13.0535 13.0637 13.0093 13.1355C12.9286 13.2668 12.9248 13.4218 12.9767 13.5646C13.3767 14.6638 14.0509 15.5187 15.1575 15.9792C15.3345 16.0529 15.5123 16.1386 15.7163 16.1149C16.0579 16.075 16.1686 15.7002 16.408 15.5044C16.642 15.3131 16.941 15.3106 17.193 15.4701C17.4452 15.6297 17.6895 15.8009 17.9324 15.9741C18.1709 16.144 18.4083 16.3101 18.6282 16.5039C18.8397 16.6901 18.9125 16.9345 18.7934 17.1872C18.5754 17.6501 18.2581 18.0352 17.8006 18.281C17.6714 18.3503 17.517 18.3727 17.3714 18.4176C17.517 18.3727 17.2038 18.3667 17.3714 18.4176Z" fill="white"/>
<path d="M15.0041 9.69293C17.0144 9.74929 18.6657 11.0834 19.0195 13.0709C19.0798 13.4096 19.1012 13.7558 19.1281 14.0995C19.1394 14.2441 19.0575 14.3814 18.9015 14.3834C18.7404 14.3853 18.6679 14.2504 18.6573 14.106C18.6367 13.8199 18.6223 13.5325 18.5829 13.2489C18.3748 11.7513 17.1807 10.5124 15.69 10.2465C15.4657 10.2065 15.2362 10.196 15.0089 10.1722C14.8653 10.1571 14.6772 10.1484 14.6454 9.96984C14.6188 9.82013 14.7451 9.70096 14.8877 9.69328C14.9263 9.69099 14.9652 9.69281 15.0041 9.69293C17.0145 9.74929 14.9652 9.69281 15.0041 9.69293Z" fill="white"/>
<path d="M18.0593 13.6535C18.0559 13.6786 18.0542 13.7376 18.0395 13.7931C17.9861 13.9949 17.6801 14.0202 17.6097 13.8166C17.5888 13.7562 17.5857 13.6874 17.5855 13.6223C17.5848 13.1966 17.4923 12.7712 17.2776 12.4007C17.0568 12.0199 16.7196 11.6999 16.3241 11.5062C16.085 11.3891 15.8264 11.3163 15.5642 11.273C15.4497 11.254 15.3339 11.2426 15.2188 11.2265C15.0793 11.2071 15.0047 11.1182 15.0114 10.9808C15.0176 10.852 15.1117 10.7592 15.2521 10.7672C15.7134 10.7934 16.1591 10.8932 16.5693 11.1104C17.4033 11.5521 17.8798 12.2493 18.0189 13.1803C18.0252 13.2225 18.0352 13.2642 18.0385 13.3065C18.0463 13.4109 18.0513 13.5155 18.0593 13.6535C18.0559 13.6785 18.0513 13.5155 18.0593 13.6535Z" fill="white"/>
<path d="M16.8089 13.6048C16.6407 13.6078 16.5507 13.5146 16.5333 13.3605C16.5213 13.2531 16.5117 13.1441 16.486 13.0395C16.4355 12.8334 16.326 12.6425 16.1527 12.5162C16.0709 12.4566 15.9781 12.4132 15.881 12.3851C15.7577 12.3494 15.6295 12.3592 15.5065 12.3291C15.3729 12.2964 15.2989 12.1881 15.3199 12.0628C15.3391 11.9486 15.45 11.8596 15.5748 11.8686C16.3542 11.9249 16.9112 12.3278 16.9908 13.2454C16.9964 13.3102 17.003 13.3785 16.9886 13.4406C16.9639 13.5465 16.8854 13.5996 16.8089 13.6048C16.8854 13.5996 16.6407 13.6078 16.8089 13.6048Z" fill="white"/>
<path d="M17.3714 18.4176C17.2038 18.3667 17.517 18.3727 17.3714 18.4176V18.4176Z" fill="white"/>
<path d="M15.0093 9.69324C15.0076 9.69324 15.0059 9.69307 15.0042 9.69307C15.0026 9.69295 15.0047 9.69307 15.0093 9.69324Z" fill="white"/>
<path d="M15.0044 9.69293C15.0061 9.69293 15.0077 9.6931 15.0094 9.6931C15.121 9.69709 16.9355 9.74707 15.0044 9.69293Z" fill="white"/>
<path d="M18.0593 13.6535C18.0514 13.5155 18.056 13.6785 18.0593 13.6535V13.6535Z" fill="white"/>
<path d="M16.8091 13.6048C16.8117 13.6046 16.8143 13.6032 16.8168 13.6029C16.8097 13.6029 16.7988 13.6031 16.7876 13.6035C16.7949 13.6037 16.8015 13.6048 16.8091 13.6048Z" fill="white"/>
<path d="M16.8089 13.6048C16.8013 13.6049 16.7947 13.6038 16.7874 13.6035C16.751 13.6045 16.7135 13.6065 16.8089 13.6048Z" fill="white"/>
<path d="M16.8165 13.6029C16.8139 13.6032 16.8114 13.6046 16.8088 13.6048C16.8285 13.6034 16.8268 13.6029 16.8165 13.6029Z" fill="white"/>
</g>
<defs>
<clipPath id="clip0_47_282">
<rect width="30" height="30" fill="white"/>
</clipPath>
</defs>
</svg>
