<?xml version="1.0" encoding="iso-8859-1"?>
<!-- Uploaded to: SVG Repo, www.svgrepo.com, Generator: SVG Repo Mixer Tools -->
<svg fill="white" height="50px" width="50px" version="1.1" id="Layer_1" xmlns="http://www.w3.org/2000/svg" xmlns:xlink="http://www.w3.org/1999/xlink" 
	 viewBox="0 0 514.4 514.4" xml:space="preserve">
<g>
	<g>
		<path d="M504,103.6L427.2,26c-1.6-1.6-4-1.6-5.6,0L182.8,264.4c-0.4,0.4-0.4,0.4-0.4,0.8c-0.4,0.4-0.8,0.4-0.8,0.8L9.2,438.4
			c-6,6-9.2,13.6-9.2,22c0,8.4,3.2,15.2,8.8,21.2c6,5.6,13.6,8,22,8c8.4,0,16-2.4,22-8.4h0.4l170.4-170.4l59.2,59.6
			c0.8,0.8,1.6,1.2,2.8,1.2c1.2,0,2-0.4,2.8-1.2L504,154.8c6.8-6.8,10.4-16,10.4-25.6C514.4,119.6,510.8,110.4,504,103.6z"/>
	</g>
</g>
</svg>