<svg width="30" height="30" viewBox="0 0 30 30" fill="none" xmlns="http://www.w3.org/2000/svg">
<g clip-path="url(#clip0_47_276)">
<path d="M15 0C6.71566 0 0 6.71566 0 15C0 23.2843 6.71566 30 15 30C23.2843 30 30 23.2843 30 15C30 6.71566 23.2843 0 15 0Z" fill="#40B3E0"/>
<path d="M22.2987 8.62861L19.6195 22.1365C19.6195 22.1365 19.2449 23.0733 18.2145 22.6236L12.0319 17.8836L9.78377 16.797L5.99932 15.523C5.99932 15.523 5.41853 15.317 5.36228 14.8673C5.30615 14.4177 6.01807 14.1742 6.01807 14.1742L21.0621 8.27259C21.0621 8.27259 22.2987 7.72931 22.2987 8.62861Z" fill="white"/>
<path d="M11.5569 21.9848C11.5569 21.9848 11.3764 21.9679 11.1515 21.2559C10.9267 20.544 9.78394 16.797 9.78394 16.797L18.8703 11.0267C18.8703 11.0267 19.395 10.7082 19.3762 11.0267C19.3762 11.0267 19.4698 11.0828 19.1888 11.3451C18.9078 11.6075 12.0508 17.7712 12.0508 17.7712" fill="#D2E5F1"/>
<path d="M14.4024 19.701L11.957 21.9306C11.957 21.9306 11.7658 22.0757 11.5566 21.9848L12.0249 17.8433" fill="#B5CFE4"/>
</g>
<defs>
<clipPath id="clip0_47_276">
<rect width="30" height="30" fill="white"/>
</clipPath>
</defs>
</svg>
